<?xml version="1.0" encoding="utf-8"?>
<!-- Generator: Adobe Illustrator 23.0.2, SVG Export Plug-In . SVG Version: 6.00 Build 0)  -->
<svg version="1.1" id="Capa_1" xmlns="http://www.w3.org/2000/svg" xmlns:xlink="http://www.w3.org/1999/xlink" x="0px" y="0px"
	 viewBox="0 0 612 612" style="enable-background:new 0 0 612 612;" xml:space="preserve">
<style type="text/css">
	.st0{fill:#848484;}
</style>
<g>
	<g id="Right">
		<g>
			<path class="st0" d="M200.8,280.6c-7.2,6.7-11.4,16-11.4,25.9s4.1,19.2,11.4,25.9l140.5,128.8l0.1-0.1c6.3,5.7,14.5,9.3,23.7,9.3
				c19.4,0,35.1-15.7,35.1-35.1c0-10.3-4.5-19.4-11.5-25.8l0.1-0.1L276.5,306.5l112.3-102.9l-0.1-0.1c7-6.4,11.5-15.6,11.5-25.8
				c0-19.4-15.7-35.1-35.1-35.1c-9.2,0-17.4,3.6-23.7,9.3l-0.1-0.1L200.8,280.6z M2,306.5C2,138.6,138.6,2,306.5,2
				S611,138.6,611,306.5S474.4,611,306.5,611S2,474.4,2,306.5z"/>
		</g>
	</g>
</g>
</svg>
