<?xml version="1.0" encoding="utf-8"?>
<!-- Generator: Adobe Illustrator 23.0.2, SVG Export Plug-In . SVG Version: 6.00 Build 0)  -->
<svg version="1.1" id="Capa_1" xmlns="http://www.w3.org/2000/svg" xmlns:xlink="http://www.w3.org/1999/xlink" x="0px" y="0px"
	 viewBox="0 0 612 612" style="enable-background:new 0 0 612 612;" xml:space="preserve">
<style type="text/css">
	.st0{fill:#848484;}
</style>
<g>
	<g id="Right">
		<g>
			<path class="st0" d="M271.7,151.8L271.7,151.8c-6.3-5.7-14.6-9.3-23.8-9.3c-19.4,0-35.1,15.7-35.1,35.1
				c0,10.3,4.5,19.4,11.5,25.8l-0.1,0.1l112.3,102.9L224.2,409.4l0.1,0.1c-7,6.4-11.5,15.5-11.5,25.8c0,19.4,15.7,35.1,35.1,35.1
				c9.2,0,17.4-3.6,23.7-9.3l0.1,0.1l140.5-128.8c7.2-6.7,11.4-16,11.4-25.9s-4.1-19.2-11.4-25.9L271.7,151.8z M306.5,611
				C138.6,611,2,474.4,2,306.5S138.6,2,306.5,2S611,138.6,611,306.5S474.4,611,306.5,611z"/>
		</g>
	</g>
</g>
</svg>
