<svg xmlns="http://www.w3.org/2000/svg" width="322" height="139.213" viewBox="0 0 322 139.213">
  <g id="Group_2697" data-name="Group 2697" transform="translate(-81.899 -422.388)">
    <path id="Path_2672" data-name="Path 2672" d="M381.883,422.388a21.148,21.148,0,0,0-16.853,33.922l.057.144q.486.575.939,1.177a26.325,26.325,0,0,1,5.284,15.861v1.762h21.146v-1.762a26.318,26.318,0,0,1,5.286-15.861c.218-.29.5-.7.731-.983a21.146,21.146,0,0,0-16.589-34.26m5.286,49.341h-3.524V452.345h3.524Zm-7.048,0H376.6V452.345h3.524Z" transform="translate(-90.292)" fill="#fcb813"/>
    <rect id="Rectangle_1068" data-name="Rectangle 1068" width="21.147" height="3.524" transform="translate(281.018 478.778)" fill="#fcb813"/>
    <rect id="Rectangle_1069" data-name="Rectangle 1069" width="21.147" height="52.866" transform="translate(281.018 485.827)" fill="#fcb813"/>
    <path id="Path_2673" data-name="Path 2673" d="M376.373,599.6l10.574,19.384L397.52,599.6Z" transform="translate(-95.356 -57.385)" fill="#fcb813"/>
    <path id="Path_2674" data-name="Path 2674" d="M160.281,546.668V516.74h15.857v27.2c0,7.665,2.205,12.076,8.085,12.076,5.986,0,9.872-4.1,9.872-13.756V516.74h15.857v52.506H194.095V563.89c-2.521,3.676-7.141,6.511-13.967,6.511-13.021,0-19.847-9.451-19.847-23.733" transform="translate(-25.381 -30.553)" fill="#fcb813"/>
    <path id="Path_2675" data-name="Path 2675" d="M245.282,516.187h15.856v5.355a16.256,16.256,0,0,1,13.441-6.51c7.561,0,13.021,3.465,16.277,9.241,3.36-6.406,10.606-9.241,16.066-9.241,12.812,0,19.952,9.136,19.952,23.733v29.928H311.019v-27.2c0-7.666-2.205-12.076-7.561-12.076-5.565,0-9.45,4.2-9.45,13.756v25.518H278.15v-27.2c0-7.666-2.205-12.076-7.56-12.076-5.566,0-9.451,4.2-9.451,13.756v25.518H245.282Z" transform="translate(-52.906 -30)" fill="#fcb813"/>
    <path id="Path_2676" data-name="Path 2676" d="M417.2,542.309c0-14.911,10.607-27.408,24.363-27.408,7.036,0,12.181,3.57,14.282,6.406v-5.251H471.7v52.5H455.847v-5.25c-2.1,2.835-7.246,6.406-14.282,6.406-13.756,0-24.363-12.5-24.363-27.408m39.9,0c0-7.56-4.831-13.021-11.971-13.021s-11.971,5.461-11.971,13.021,4.831,13.021,11.971,13.021,11.971-5.46,11.971-13.021" transform="translate(-108.577 -29.957)" fill="#fcb813"/>
    <path id="Path_2677" data-name="Path 2677" d="M508.561,516.308h15.856v7.876a13.57,13.57,0,0,1,12.5-8.506,18.575,18.575,0,0,1,5.145.63v16.067a20.292,20.292,0,0,0-7.036-1.26c-6.826,0-10.606,5.25-10.606,12.812v24.887H508.561Z" transform="translate(-138.16 -30.209)" fill="#fcb813"/>
    <path id="Path_2678" data-name="Path 2678" d="M98.6,542.984V484.934H81.9v74.012h47.57V542.984Z" transform="translate(0 -20.253)" fill="#fcb813"/>
  </g>
</svg>
