<svg id="team" xmlns="http://www.w3.org/2000/svg" width="41" height="41" viewBox="0 0 41 41">
  <g id="Grupo_16" data-name="Grupo 16" transform="translate(16.4)">
    <g id="Grupo_15" data-name="Grupo 15">
      <path id="Caminho_11" data-name="Caminho 11" d="M196.1,0a4.1,4.1,0,1,0,4.1,4.1A4.1,4.1,0,0,0,196.1,0Zm0,6.833A2.733,2.733,0,1,1,198.833,4.1,2.733,2.733,0,0,1,196.1,6.833Z" transform="translate(-192 0)" fill="#0c89d1"/>
    </g>
  </g>
  <g id="Grupo_18" data-name="Grupo 18" transform="translate(14.35 8.883)">
    <g id="Grupo_17" data-name="Grupo 17">
      <path id="Caminho_12" data-name="Caminho 12" d="M176.883,104h-.161l-.144.072a5.447,5.447,0,0,1-4.856,0l-.144-.072h-.161A3.421,3.421,0,0,0,168,107.417v4.1a2.05,2.05,0,0,0,2.05,2.05h8.2a2.05,2.05,0,0,0,2.05-2.05v-4.1A3.421,3.421,0,0,0,176.883,104Zm2.05,7.517a.683.683,0,0,1-.683.683h-8.2a.683.683,0,0,1-.683-.683v-4.1a2.05,2.05,0,0,1,1.9-2.045,6.838,6.838,0,0,0,5.758,0,2.05,2.05,0,0,1,1.9,2.045Z" transform="translate(-168 -104)" fill="#0c89d1"/>
    </g>
  </g>
  <g id="Grupo_20" data-name="Grupo 20" transform="translate(30.75 22.55)">
    <g id="Grupo_19" data-name="Grupo 19">
      <path id="Caminho_13" data-name="Caminho 13" d="M364.1,264a4.1,4.1,0,1,0,4.1,4.1A4.1,4.1,0,0,0,364.1,264Zm0,6.833a2.733,2.733,0,1,1,2.733-2.733A2.733,2.733,0,0,1,364.1,270.833Z" transform="translate(-360 -264)" fill="#0c89d1"/>
    </g>
  </g>
  <g id="Grupo_22" data-name="Grupo 22" transform="translate(28.7 31.433)">
    <g id="Grupo_21" data-name="Grupo 21">
      <path id="Caminho_14" data-name="Caminho 14" d="M344.883,368h-.161l-.144.068a5.448,5.448,0,0,1-4.856,0l-.144-.068h-.161A3.421,3.421,0,0,0,336,371.417v4.1a2.05,2.05,0,0,0,2.05,2.05h8.2a2.05,2.05,0,0,0,2.05-2.05v-4.1A3.421,3.421,0,0,0,344.883,368Zm2.05,7.517a.683.683,0,0,1-.683.683h-8.2a.683.683,0,0,1-.683-.683v-4.1a2.05,2.05,0,0,1,1.9-2.045,6.838,6.838,0,0,0,5.758,0,2.05,2.05,0,0,1,1.9,2.045Z" transform="translate(-336 -368)" fill="#0c89d1"/>
    </g>
  </g>
  <g id="Grupo_24" data-name="Grupo 24" transform="translate(2.05 22.55)">
    <g id="Grupo_23" data-name="Grupo 23">
      <path id="Caminho_15" data-name="Caminho 15" d="M28.1,264a4.1,4.1,0,1,0,4.1,4.1A4.1,4.1,0,0,0,28.1,264Zm0,6.833a2.733,2.733,0,1,1,2.733-2.733A2.733,2.733,0,0,1,28.1,270.833Z" transform="translate(-24 -264)" fill="#0c89d1"/>
    </g>
  </g>
  <g id="Grupo_26" data-name="Grupo 26" transform="translate(0 31.433)">
    <g id="Grupo_25" data-name="Grupo 25">
      <path id="Caminho_16" data-name="Caminho 16" d="M8.883,368H8.722l-.144.068a5.448,5.448,0,0,1-4.856,0L3.578,368H3.417A3.421,3.421,0,0,0,0,371.417v4.1a2.05,2.05,0,0,0,2.05,2.05h8.2a2.05,2.05,0,0,0,2.05-2.05v-4.1A3.421,3.421,0,0,0,8.883,368Zm2.05,7.517a.683.683,0,0,1-.683.683H2.05a.683.683,0,0,1-.683-.683v-4.1a2.05,2.05,0,0,1,1.9-2.045,6.838,6.838,0,0,0,5.758,0,2.05,2.05,0,0,1,1.9,2.045Z" transform="translate(0 -368)" fill="#0c89d1"/>
    </g>
  </g>
  <g id="Grupo_28" data-name="Grupo 28" transform="translate(13.666 33.483)">
    <g id="Grupo_27" data-name="Grupo 27">
      <path id="Caminho_17" data-name="Caminho 17" d="M173.611,393.215v0a.683.683,0,0,0-.9-.361h0a15.158,15.158,0,0,1-9.746.671l.64-.188a.684.684,0,1,0-.384-1.312l-2.733.8c-.01,0-.018.012-.027.015a.679.679,0,0,0-.176.1.593.593,0,0,0-.068.043.662.662,0,0,0-.167.232.685.685,0,0,0-.052.282,2.107,2.107,0,0,0,.068.273c0,.01,0,.02.008.03l1.367,2.615a.684.684,0,1,0,1.212-.633l-.556-1.063a16.448,16.448,0,0,0,11.151-.607A.683.683,0,0,0,173.611,393.215Z" transform="translate(-159.998 -391.995)" fill="#0c89d1"/>
    </g>
  </g>
  <g id="Grupo_30" data-name="Grupo 30" transform="translate(25.966 5.349)">
    <g id="Grupo_29" data-name="Grupo 29">
      <path id="Caminho_18" data-name="Caminho 18" d="M316.781,75.24a.683.683,0,0,0-.966,0l-.967.967a16.375,16.375,0,0,0-9.9-13.53.683.683,0,1,0-.536,1.257,15.011,15.011,0,0,1,9.038,12.077l-.771-.771a.683.683,0,0,0-.966.966l2.05,2.05a.683.683,0,0,0,.966,0h0l2.05-2.05A.683.683,0,0,0,316.781,75.24Z" transform="translate(-303.998 -62.622)" fill="#0c89d1"/>
    </g>
  </g>
  <g id="Grupo_32" data-name="Grupo 32" transform="translate(4.1 4.111)">
    <g id="Grupo_31" data-name="Grupo 31">
      <path id="Caminho_19" data-name="Caminho 19" d="M58.913,49.94a.635.635,0,0,0-.018-.118c0-.006-.008-.01-.01-.017s0-.012,0-.017a.655.655,0,0,0-.064-.094.69.69,0,0,0-.078-.113.641.641,0,0,0-.133-.091.6.6,0,0,0-.077-.055L55.8,48.186a.683.683,0,0,0-.567,1.242l1.415.647A16.375,16.375,0,0,0,48,64.523a.683.683,0,1,0,1.367,0,15.01,15.01,0,0,1,7.4-12.945l-.494,1.033a.683.683,0,0,0,.319.911.673.673,0,0,0,.3.068A.683.683,0,0,0,57.5,53.2l1.367-2.852a.031.031,0,0,1,.005-.021.657.657,0,0,0,.037-.145.706.706,0,0,0,.026-.113A.682.682,0,0,0,58.913,49.94Z" transform="translate(-48 -48.134)" fill="#0c89d1"/>
    </g>
  </g>
</svg>
