<?xml version="1.0" encoding="utf-8"?>
<!-- Generator: Adobe Illustrator 24.0.3, SVG Export Plug-In . SVG Version: 6.00 Build 0)  -->
<svg version="1.1" id="Layer_1" xmlns="http://www.w3.org/2000/svg" xmlns:xlink="http://www.w3.org/1999/xlink" x="0px" y="0px"
	 viewBox="0 0 150 150" style="enable-background:new 0 0 150 150;" xml:space="preserve">
<style type="text/css">
	.st0{fill:#00F993;}
	.st1{fill:#494949;}
	.st2{fill:#232323;}
</style>
<g>
	<g>
		<path class="st0" d="M144.84,118.12c-1.81-20.07-3.61-40.16-5.4-60.23c-0.17-1.77-1.4-3.28-3.3-3.28c-2.49,0-4.98,0-7.49,0v-2.86
			h2.49c1.93,0,3.51-1.58,3.51-3.51V36.39c0-1.93-1.58-3.51-3.51-3.51h-24.13c-1.93,0-3.51,1.58-3.51,3.51v11.84
			c0,1.93,1.58,3.51,3.51,3.51h2.93v2.86c-2.35,0-4.69,0-7.02,0c-1.79,0-3.3,1.51-3.3,3.28c0,5.56,0,11.11,0,16.67H78.87
			c0-5.56,0-11.11,0-16.67c0-1.77-1.51-3.28-3.3-3.28c-2.33,0-4.67,0-7.02,0v-2.86h2.93c1.93,0,3.51-1.58,3.51-3.51V36.39
			c0-1.93-1.58-3.51-3.51-3.51H47.36c-1.93,0-3.51,1.58-3.51,3.51v11.84c0,1.93,1.58,3.51,3.51,3.51h2.49v2.86c-2.51,0-5,0-7.49,0
			c-1.9,0-3.12,1.51-3.3,3.28c-1.79,20.07-3.6,40.16-5.4,60.23c-3.04,1.33-5.16,4.35-5.16,7.86v12.47c0,1.93,1.58,3.51,3.51,3.51
			h48.25c1.93,0,3.51-1.58,3.51-3.51v-12.47c0-3.4-2.02-6.33-4.9-7.72c0-4.63,0-9.25,0-13.88h20.76c0,4.63,0,9.25,0,13.88
			c-2.88,1.39-4.9,4.32-4.9,7.72v12.47c0,1.93,1.58,3.51,3.51,3.51h48.25c1.93,0,3.51-1.58,3.51-3.51v-12.47
			C150,122.47,147.88,119.45,144.84,118.12z"/>
		<g id="XMLID_13_">
			<g>
				<path class="st1" d="M125.12,108.56v9.84H79.86v-9.84c0-0.94,0.77-1.71,1.73-1.71h41.79
					C124.34,106.84,125.12,107.61,125.12,108.56z"/>
				<path class="st2" d="M85.64,27.08c-2.12,0-3.85-1.73-3.85-3.85v-13c0-2.12,1.73-3.85,3.85-3.85h26.48
					c2.12,0,3.85,1.73,3.85,3.85v13c0,2.12-1.73,3.85-3.85,3.85h-2.73v3.14c2.75,0,5.49,0,8.22,0c2.08,0,3.43,1.66,3.62,3.6
					c1.96,22.03,3.95,44.08,5.93,66.11c3.33,1.46,5.66,4.78,5.66,8.63v13.69c0,2.12-1.73,3.85-3.85,3.85H76.01
					c-2.12,0-3.85-1.73-3.85-3.85v-13.69c0-3.74,2.21-6.95,5.37-8.47V84.85H54.75v15.23c3.16,1.52,5.37,4.74,5.37,8.47v13.69
					c0,2.12-1.73,3.85-3.85,3.85H3.31c-2.12,0-3.85-1.73-3.85-3.85v-13.69c0-3.85,2.33-7.16,5.66-8.63
					c0.42-4.68,0.84-9.36,1.25-14.04c0.16-1.86,1.72-3.29,3.59-3.29l0,0c2.12,0,3.78,1.81,3.6,3.92c-0.37,4.21-0.76,8.42-1.14,12.62
					h14.73V74.72c0-1.91,1.3-3.69,3.18-4.01c2.41-0.41,4.52,1.44,4.52,3.8v24.63h12.67V37.42H17.97c-0.35,3.91-0.7,7.84-1.06,11.76
					c-0.17,1.86-1.72,3.28-3.59,3.28l0,0c-2.12,0-3.78-1.82-3.6-3.93c0.44-4.9,0.89-9.8,1.33-14.71c0.19-1.94,1.54-3.6,3.62-3.6
					c2.73,0,5.47,0,8.22,0v-3.14h-2.73c-2.12,0-3.85-1.73-3.85-3.85v-13c0-2.12,1.73-3.85,3.85-3.85h26.48
					c2.12,0,3.85,1.73,3.85,3.85v13c0,2.12-1.73,3.85-3.85,3.85h-3.22v3.14c2.58,0,5.14,0,7.7,0c1.96,0,3.62,1.66,3.62,3.6
					c0,6.1,0,12.19,0,18.29h22.78V33.82c0-1.98,1.62-3.6,3.6-3.6h7.72v-3.14L85.64,27.08L85.64,27.08L85.64,27.08z M125.12,118.4
					v-9.84c0-0.94-0.77-1.71-1.73-1.71H81.59c-0.96,0-1.73,0.77-1.73,1.71v9.84H125.12z M119.86,99.14
					c-1.85-20.57-3.7-41.13-5.55-61.72c-9.84,0-19.7,0-29.56,0c0,20.59,0,41.15,0,61.72h13.88V74.51c0-2.14,1.73-3.85,3.85-3.85
					c2.12,0,3.85,1.71,3.85,3.85v24.63H119.86z M108.26,19.38v-5.3H89.49v5.3H108.26z M101.68,30.22v-2.98h-5.12v2.98
					C98.27,30.22,99.96,30.22,101.68,30.22z M77.53,77.15c0-5.78,0-11.55,0-17.33h-7.55v17.33H77.53z M62.28,77.15V59.82h-7.53
					c0,5.78,0,11.55,0,17.33H62.28z M52.42,118.4v-9.84c0-0.94-0.77-1.71-1.73-1.71H8.9c-0.96,0-1.73,0.77-1.73,1.71v9.84H52.42z
					 M42.79,19.38v-5.3H24.01v5.3H42.79z M35.72,30.22v-2.98H30.6v2.98C32.31,30.22,34.01,30.22,35.72,30.22z"/>
				<rect x="89.49" y="14.08" class="st1" width="18.78" height="5.3"/>
				<path class="st1" d="M77.53,59.82c0,5.78,0,11.55,0,17.33h-7.55V59.82C69.98,59.82,77.53,59.82,77.53,59.82z"/>
				<path class="st1" d="M62.28,59.82v17.33h-7.53c0-5.78,0-11.55,0-17.33C54.75,59.82,62.28,59.82,62.28,59.82z"/>
				<path class="st1" d="M52.42,108.56v9.84H7.16v-9.84c0-0.94,0.77-1.71,1.73-1.71h41.79C51.65,106.84,52.42,107.61,52.42,108.56z"
					/>
				<rect x="24.01" y="14.08" class="st1" width="18.78" height="5.3"/>
				<path class="st2" d="M15.64,63.27c-0.28,3.06-0.55,6.11-0.83,9.17c-0.17,1.86-1.73,3.28-3.59,3.28l0,0
					c-2.12,0-3.78-1.82-3.59-3.93c0.28-3.06,0.55-6.12,0.83-9.18c0.17-1.86,1.73-3.28,3.59-3.28l0,0
					C14.17,59.34,15.83,61.16,15.64,63.27z"/>
			</g>
		</g>
	</g>
</g>
</svg>
