<svg width="94" height="68" viewBox="0 0 94 68" fill="none" xmlns="http://www.w3.org/2000/svg">
<path fill-rule="evenodd" clip-rule="evenodd" d="M14.8103 2.70569C14.038 4.79623 15.0609 7.11837 17.0982 7.96362C17.1489 7.98614 17.1997 8.00594 17.2532 8.02555C19.5309 9.00962 21.0616 11.3844 20.7748 14.0793C20.4875 16.7816 18.3186 18.9697 15.6191 19.2794C12.933 19.5882 10.1312 17.705 9.54638 15.8338C9.48924 15.6509 9.39687 15.4788 9.33784 15.2929C8.24713 12.9089 5.44083 11.8155 2.99765 12.8471C0.68396 13.8218 -0.490868 16.3609 0.193852 18.7026C0.196557 18.711 0.196557 18.7165 0.202305 18.7251C0.258767 18.894 0.320641 19.0661 0.382581 19.2351C3.69637 28.2523 13.3815 38.2527 13.8745 38.7601C14.4352 39.3349 15.413 39.332 15.9711 38.7601C16.5655 38.1484 30.5647 23.6903 30.5647 13.8416C30.5647 7.64235 26.287 2.34756 20.302 0.327145C20.2993 0.324373 20.2965 0.324378 20.2936 0.324378C20.1929 0.289824 20.0914 0.255876 19.9889 0.223351C19.6838 0.126113 19.3715 0.0448363 19.0523 0.0161654C18.9308 0.00521097 18.8097 0 18.6887 0C17.0087 0 15.4297 1.03696 14.8103 2.70569V2.70569Z" fill="url(#paint0_linear)"/>
<path fill-rule="evenodd" clip-rule="evenodd" d="M31.9768 24.9493H35.6633V38.7396H31.9768V24.9493ZM33.806 23.092C33.4867 23.092 33.1818 23.0311 32.8914 22.9089C32.6002 22.7872 32.3468 22.6185 32.1317 22.4022C31.9155 22.1868 31.7464 21.9381 31.6247 21.6566C31.5025 21.3752 31.442 21.0661 31.442 20.728C31.442 20.3903 31.5025 20.0804 31.6247 19.799C31.7464 19.5175 31.9155 19.2696 32.1317 19.0534C32.3468 18.8378 32.6002 18.6692 32.8914 18.547C33.1818 18.4249 33.4867 18.3636 33.806 18.3636C34.4622 18.3636 35.0255 18.5943 35.4947 19.0534C35.9632 19.5136 36.1981 20.0719 36.1981 20.728C36.1981 21.385 35.9632 21.9432 35.4947 22.4022C35.0255 22.8621 34.4622 23.092 33.806 23.092V23.092Z" fill="url(#paint1_linear)"/>
<path fill-rule="evenodd" clip-rule="evenodd" d="M37.3514 24.9492H40.8128V26.8632H41.0379C41.207 26.5256 41.4323 26.2156 41.7137 25.9341C41.9952 25.6527 42.309 25.4083 42.6565 25.1987C43.0035 24.9898 43.3783 24.8209 43.7822 24.6924C44.1855 24.564 44.5841 24.4987 44.9783 24.4987C45.4658 24.4987 45.8831 24.5511 46.2306 24.6553C46.5776 24.7599 46.8731 24.895 47.1171 25.0621L46.1318 28.3548C45.9069 28.2419 45.658 28.1532 45.3862 28.0873C45.1142 28.0218 44.7811 27.9889 44.3869 27.9889C43.8806 27.9889 43.4207 28.0881 43.0081 28.2856C42.5955 28.4839 42.2434 28.7623 41.9526 29.1206C41.6618 29.479 41.4365 29.8986 41.2777 30.38C41.1176 30.8608 41.0379 31.3839 41.0379 31.9492V38.7395H37.3514V24.9492Z" fill="url(#paint2_linear)"/>
<path fill-rule="evenodd" clip-rule="evenodd" d="M52.8024 35.7847C53.2708 35.7847 53.7253 35.6958 54.1663 35.5174C54.6076 35.3391 54.9971 35.0814 55.3351 34.7433C55.6731 34.406 55.9398 33.9931 56.1373 33.5047C56.3336 33.0175 56.4324 32.4641 56.4324 31.8445C56.4324 31.2257 56.3336 30.6719 56.1373 30.1842C55.9398 29.6964 55.6731 29.2833 55.3351 28.9457C54.9971 28.608 54.6076 28.3507 54.1663 28.172C53.7253 27.994 53.2708 27.9046 52.8024 27.9046C52.3142 27.9046 51.8543 27.994 51.4233 28.172C50.9908 28.3507 50.6066 28.608 50.2691 28.9457C49.9318 29.2833 49.6643 29.6964 49.4668 30.1842C49.27 30.6719 49.1714 31.2257 49.1714 31.8445C49.1714 32.4641 49.27 33.0175 49.4668 33.5047C49.6643 33.9931 49.9318 34.406 50.2691 34.7433C50.6066 35.0814 50.9908 35.3391 51.4233 35.5174C51.8543 35.6958 52.3142 35.7847 52.8024 35.7847V35.7847ZM52.8024 24.4991C53.8712 24.4991 54.8514 24.6821 55.743 25.0483C56.6335 25.4137 57.4037 25.9203 58.0508 26.5677C58.6985 27.2148 59.2044 27.9889 59.5709 28.8895C59.936 29.7904 60.1194 30.7752 60.1194 31.8445C60.1194 32.9141 59.936 33.8985 59.5709 34.7999C59.2044 35.7001 58.6985 36.4746 58.0508 37.1218C57.4037 37.769 56.6335 38.2757 55.743 38.6411C54.8514 39.0069 53.8712 39.1904 52.8024 39.1904C51.7329 39.1904 50.7519 39.0069 49.8607 38.6411C48.9699 38.2757 48.2005 37.769 47.5533 37.1218C46.906 36.4746 46.3998 35.7001 46.0335 34.7999C45.6679 33.8985 45.4847 32.9141 45.4847 31.8445C45.4847 30.7752 45.6679 29.7904 46.0335 28.8895C46.3998 27.9889 46.906 27.2148 47.5533 26.5677C48.2005 25.9203 48.9699 25.4137 49.8607 25.0483C50.7519 24.6821 51.7329 24.4991 52.8024 24.4991Z" fill="url(#paint3_linear)"/>
<path fill-rule="evenodd" clip-rule="evenodd" d="M70.1946 36.9385H69.9697C69.5372 37.6329 68.9564 38.1818 68.2244 38.585C67.4929 38.9882 66.6578 39.1901 65.7199 39.1901C63.9749 39.1901 62.6758 38.6553 61.8221 37.586C60.9684 36.5164 60.5413 35.0912 60.5413 33.3077V24.9493H64.2286V32.8576C64.2286 33.8527 64.4484 34.5885 64.8895 35.0671C65.3302 35.5457 65.9736 35.7846 66.8179 35.7846C67.3237 35.7846 67.7696 35.6771 68.1541 35.4609C68.539 35.2458 68.8669 34.9542 69.139 34.5885C69.411 34.2227 69.6172 33.7909 69.7585 33.294C69.899 32.7971 69.9697 32.2666 69.9697 31.7041V24.9493H73.6562V38.7396H70.1946V36.9385V36.9385Z" fill="url(#paint4_linear)"/>
<path d="M13.3418 60.0667H13.1166C12.7789 60.6483 12.2536 61.1456 11.5406 61.5584C10.8276 61.9711 9.94582 62.1774 8.89514 62.1774C8.01337 62.1774 7.17373 61.9945 6.37636 61.6287C5.57898 61.2628 4.87546 60.7562 4.26567 60.109C3.6558 59.4617 3.17273 58.6878 2.8163 57.7871C2.45981 56.8866 2.28149 55.9016 2.28149 54.8321C2.28149 53.7627 2.45981 52.7776 2.8163 51.8771C3.17273 50.9766 3.6558 50.2027 4.26567 49.5553C4.87546 48.908 5.57898 48.4014 6.37636 48.0356C7.17373 47.6698 8.01337 47.4868 8.89514 47.4868C9.94582 47.4868 10.8276 47.6932 11.5406 48.106C12.2536 48.5187 12.7789 49.0159 13.1166 49.5976H13.3418L13.1166 47.6275V41.5768H16.8034V61.7272H13.3418V60.0667V60.0667ZM9.65505 58.7722C10.1429 58.7722 10.6072 58.683 11.0482 58.5049C11.489 58.3266 11.8784 58.0686 12.2161 57.7308C12.5538 57.3931 12.8258 56.9804 13.0321 56.4926C13.2385 56.0047 13.3418 55.4513 13.3418 54.8321C13.3418 54.2131 13.2385 53.6595 13.0321 53.1717C12.8258 52.6839 12.5538 52.2711 12.2161 51.9334C11.8784 51.5956 11.489 51.3377 11.0482 51.1595C10.6072 50.9812 10.1429 50.8921 9.65505 50.8921C9.16724 50.8921 8.70283 50.986 8.26201 51.1735C7.82106 51.3612 7.43177 51.6239 7.09408 51.9616C6.75632 52.2993 6.48421 52.7121 6.27791 53.1998C6.07153 53.6877 5.96827 54.2317 5.96827 54.8321C5.96827 55.4325 6.07153 55.9767 6.27791 56.4644C6.48421 56.9523 6.75632 57.3651 7.09408 57.7027C7.43177 58.0404 7.82106 58.3031 8.26201 58.4907C8.70283 58.6784 9.16724 58.7722 9.65505 58.7722V58.7722Z" fill="#340E02"/>
<path d="M31.1846 58.4064C30.5467 59.5322 29.6884 60.4421 28.6096 61.1364C27.5308 61.8306 26.2128 62.1776 24.6554 62.1776C23.6047 62.1776 22.6339 61.9947 21.7427 61.6289C20.8515 61.263 20.0775 60.7518 19.4208 60.0951C18.7642 59.4384 18.2529 58.6645 17.8871 57.7733C17.5212 56.8821 17.3383 55.9018 17.3383 54.8323C17.3383 53.8379 17.5165 52.8951 17.873 52.0039C18.2294 51.1127 18.7267 50.3342 19.3645 49.668C20.0024 49.002 20.7577 48.472 21.63 48.078C22.5025 47.684 23.4641 47.4869 24.5148 47.4869C25.6218 47.4869 26.6067 47.6699 27.4698 48.0357C28.3329 48.4016 29.0552 48.9082 29.6368 49.5555C30.2184 50.2028 30.6593 50.9673 30.9596 51.8491C31.2597 52.731 31.4098 53.6878 31.4098 54.7198C31.4098 54.851 31.4098 54.9637 31.4098 55.0575C31.391 55.1701 31.3817 55.2733 31.3817 55.367C31.3629 55.4608 31.3535 55.5641 31.3535 55.6766H20.9688C21.0438 56.2395 21.1986 56.7226 21.4331 57.126C21.6676 57.5294 21.9585 57.8671 22.3056 58.1391C22.6526 58.4112 23.0325 58.6081 23.4453 58.7301C23.858 58.8521 24.2802 58.9131 24.7117 58.9131C25.5561 58.9131 26.2549 58.7208 26.8084 58.3362C27.3619 57.9515 27.7981 57.4684 28.1171 56.8867L31.1846 58.4064V58.4064ZM27.8356 53.0593C27.8169 52.8155 27.7371 52.5434 27.5964 52.2431C27.4557 51.943 27.2493 51.6615 26.9772 51.3988C26.7053 51.1362 26.3676 50.9204 25.9641 50.7516C25.5608 50.5827 25.0776 50.4983 24.5148 50.4983C23.7267 50.4983 23.0325 50.7234 22.4321 51.1737C21.8317 51.6241 21.4096 52.2525 21.1658 53.0593H27.8356V53.0593Z" fill="#340E02"/>
<path d="M32.0852 61.7272V41.5768H35.772V61.7272H32.0852Z" fill="#340E02"/>
<path d="M39.2895 46.0796C38.9706 46.0796 38.6657 46.0187 38.3749 45.8967C38.0841 45.7746 37.8308 45.6058 37.6151 45.3902C37.3993 45.1744 37.2304 44.9257 37.1084 44.6444C36.9865 44.3629 36.9255 44.0534 36.9255 43.7156C36.9255 43.3779 36.9865 43.0683 37.1084 42.7869C37.2304 42.5054 37.3993 42.2569 37.6151 42.0411C37.8308 41.8254 38.0841 41.6565 38.3749 41.5345C38.6657 41.4126 38.9706 41.3516 39.2895 41.3516C39.9463 41.3516 40.5091 41.5815 40.9781 42.0411C41.4472 42.5008 41.6818 43.0589 41.6818 43.7156C41.6818 44.3723 41.4472 44.9304 40.9781 45.3902C40.5091 45.8499 39.9463 46.0796 39.2895 46.0796ZM37.4602 61.7272V47.9371H41.147V61.7272H37.4602Z" fill="#340E02"/>
<path d="M41.3723 47.9371H45.5656L48.9991 56.7177H49.1961L52.6578 47.9371H56.8228L50.8848 61.7272H47.2542L41.3723 47.9371Z" fill="#340E02"/>
<path d="M68.8962 58.4064C68.2583 59.5322 67.4 60.4421 66.3212 61.1364C65.2424 61.8306 63.9243 62.1776 62.367 62.1776C61.3164 62.1776 60.3455 61.9947 59.4543 61.6289C58.5631 61.263 57.7892 60.7518 57.1324 60.0951C56.4758 59.4384 55.9645 58.6645 55.5987 57.7733C55.2329 56.8821 55.0498 55.9018 55.0498 54.8323C55.0498 53.8379 55.2281 52.8951 55.5846 52.0039C55.941 51.1127 56.4383 50.3342 57.0761 49.668C57.714 49.002 58.4692 48.472 59.3417 48.078C60.2142 47.684 61.1757 47.4869 62.2264 47.4869C63.3333 47.4869 64.3183 47.6699 65.1814 48.0357C66.0445 48.4016 66.7668 48.9082 67.3484 49.5555C67.93 50.2028 68.371 50.9673 68.6712 51.8491C68.9713 52.731 69.1214 53.6878 69.1214 54.7198C69.1214 54.851 69.1214 54.9637 69.1214 55.0575C69.1026 55.1701 69.0933 55.2733 69.0933 55.367C69.0745 55.4608 69.0651 55.5641 69.0651 55.6766H58.6804C58.7554 56.2395 58.9102 56.7226 59.1447 57.126C59.3792 57.5294 59.6701 57.8671 60.0172 58.1391C60.3642 58.4112 60.7442 58.6081 61.1569 58.7301C61.5697 58.8521 61.9918 58.9131 62.4234 58.9131C63.2676 58.9131 63.9665 58.7208 64.52 58.3362C65.0735 57.9515 65.5097 57.4684 65.8287 56.8867L68.8962 58.4064V58.4064ZM65.5472 53.0593C65.5285 52.8155 65.4487 52.5434 65.308 52.2431C65.1673 51.943 64.9609 51.6615 64.6888 51.3988C64.4169 51.1362 64.0792 50.9204 63.6757 50.7516C63.2724 50.5827 62.7893 50.4983 62.2264 50.4983C61.4383 50.4983 60.7442 50.7234 60.1438 51.1737C59.5434 51.6241 59.1212 52.2525 58.8774 53.0593H65.5472V53.0593Z" fill="#340E02"/>
<path d="M69.7969 47.9373H73.2584V49.8511H73.4836C73.6524 49.5133 73.8775 49.2037 74.159 48.9223C74.4404 48.6408 74.7547 48.397 75.1018 48.1858C75.4489 47.9794 75.8241 47.8106 76.2275 47.6792C76.6309 47.5527 77.0296 47.4869 77.4237 47.4869C77.9114 47.4869 78.3289 47.5386 78.6759 47.6417C78.9418 47.7244 79.1775 47.8208 79.3829 47.9373H82.8553L86.3451 56.2957H86.542L89.891 47.9373H94L85.36 67.8062H81.3919L84.4594 61.0519L79.2191 49.1977L78.5774 51.3426C78.3524 51.23 78.1037 51.1409 77.8316 51.0752C77.5596 51.0096 77.2266 50.9767 76.8327 50.9767C76.326 50.9767 75.8663 51.0752 75.4536 51.2722C75.0408 51.4739 74.6891 51.7507 74.3983 52.1071C74.1074 52.4683 73.8823 52.8857 73.7228 53.3689C73.5633 53.8473 73.4836 54.3727 73.4836 54.9354V61.7274H69.7969V47.9373V47.9373Z" fill="#340E02"/>
<defs>
<linearGradient id="paint0_linear" x1="24.0775" y1="2.07209" x2="1.55233" y2="30.3964" gradientUnits="userSpaceOnUse">
<stop stop-color="#EF8B30"/>
<stop offset="1" stop-color="#F72514"/>
</linearGradient>
<linearGradient id="paint1_linear" x1="35.1887" y1="19.4409" x2="27.2638" y2="22.4234" gradientUnits="userSpaceOnUse">
<stop stop-color="#EF8B30"/>
<stop offset="1" stop-color="#F72514"/>
</linearGradient>
<linearGradient id="paint2_linear" x1="45.0444" y1="25.2517" x2="36.6858" y2="34.4934" gradientUnits="userSpaceOnUse">
<stop stop-color="#EF8B30"/>
<stop offset="1" stop-color="#F72514"/>
</linearGradient>
<linearGradient id="paint3_linear" x1="57.0133" y1="25.2759" x2="49.2361" y2="37.7667" gradientUnits="userSpaceOnUse">
<stop stop-color="#EF8B30"/>
<stop offset="1" stop-color="#F72514"/>
</linearGradient>
<linearGradient id="paint4_linear" x1="70.8727" y1="25.7022" x2="63.088" y2="37.2612" gradientUnits="userSpaceOnUse">
<stop stop-color="#EF8B30"/>
<stop offset="1" stop-color="#F72514"/>
</linearGradient>
</defs>
</svg>
