<?xml version="1.0" encoding="utf-8"?>
<!-- Generator: Adobe Illustrator 24.0.3, SVG Export Plug-In . SVG Version: 6.00 Build 0)  -->
<svg version="1.1" id="Layer_1" xmlns="http://www.w3.org/2000/svg" xmlns:xlink="http://www.w3.org/1999/xlink" x="0px" y="0px"
	 viewBox="0 0 150 150" style="enable-background:new 0 0 150 150;" xml:space="preserve">
<style type="text/css">
	.st0{fill:#4EFFBB;}
	.st1{fill:#00F993;}
	.st2{fill:#494949;}
	.st3{fill:#232323;}
	.st4{clip-path:url(#SVGID_2_);fill:#232323;}
</style>
<g>
	<path class="st0" d="M94.69,130.54c-2.06,0-3.74,1.66-3.74,3.68v11.47c0,2.03,1.67,3.68,3.74,3.68c2.08,0,3.76-1.66,3.76-3.68
		v-11.47C98.45,132.2,96.78,130.54,94.69,130.54L94.69,130.54z M94.69,130.54"/>
	<path class="st0" d="M82.27,131.28c-2.08,0-3.76,1.66-3.76,3.68v4.07c0,2.03,1.67,3.68,3.76,3.68c2.06,0,3.76-1.66,3.76-3.68v-4.07
		C86.03,132.94,84.33,131.28,82.27,131.28L82.27,131.28z M82.27,131.28"/>
	<path class="st0" d="M69.36,130.54c-2.08,0-3.76,1.66-3.76,3.68v11.47c0,2.03,1.67,3.68,3.76,3.68c2.07,0,3.76-1.66,3.76-3.68
		v-11.47C73.12,132.2,71.43,130.54,69.36,130.54L69.36,130.54z M69.36,130.54"/>
	<path class="st1" d="M132.6,93.61l-29.52-28.86V42.23c0-10.13-4.65-19.54-12.8-25.8l-1.95-1.51c-3.53-2.75-8.54-2.82-12.16-0.18
		l-2.25,1.64c-8.5,6.17-13.58,16.04-13.58,26.39v21.78l-29.7,29.06c-0.71,0.7-1.1,1.62-1.1,2.6v15.65c0,2.04,1.67,3.68,3.76,3.68
		h27.64v8.76c0,2.03,1.67,3.67,3.76,3.67h34.67c2.08,0,3.76-1.64,3.76-3.67v-8.76h26.83c2.06,0,3.76-1.64,3.76-3.68V96.2
		C133.7,95.23,133.29,94.31,132.6,93.61L132.6,93.61z M95.6,120.62H68.44v-4.5H95.6V120.62z M95.6,120.62"/>
	<path class="st2" d="M46.92,62.38v33.25H23.63V85.18L46.92,62.38z M46.92,62.38"/>
	<path class="st2" d="M112.76,85.18v10.46h-23.1V62.58L112.76,85.18z M112.76,85.18"/>
	<path class="st3" d="M85.48,121.38v11.47c0,2.03-1.68,3.68-3.76,3.68c-2.07,0-3.74-1.66-3.74-3.68v-11.47
		c0-2.03,1.67-3.68,3.74-3.68C83.8,117.7,85.48,119.35,85.48,121.38L85.48,121.38z M85.48,121.38"/>
	<path class="st3" d="M74.24,19.71c1.77,1.05,2.34,3.3,1.26,5.04c-0.7,1.14-1.93,1.77-3.22,1.77c-0.65,0-1.32-0.17-1.94-0.53
		c-1.67-0.98-3.39-0.09-3.57,0.02c-1.78,0.99-4.07,0.42-5.11-1.31c-1.04-1.71-0.52-3.92,1.23-4.97
		C64.98,18.46,69.72,17.04,74.24,19.71L74.24,19.71z M74.24,19.71"/>
	<path class="st3" d="M73.05,122.12v4.07c0,2.03-1.69,3.68-3.76,3.68c-2.08,0-3.76-1.66-3.76-3.68v-4.07c0-2.03,1.67-3.68,3.76-3.68
		C71.36,118.43,73.05,120.09,73.05,122.12L73.05,122.12z M73.05,122.12"/>
	<path class="st3" d="M60.14,121.38v11.47c0,2.03-1.69,3.68-3.76,3.68c-2.08,0-3.76-1.66-3.76-3.68v-11.47
		c0-2.03,1.67-3.68,3.76-3.68C58.45,117.7,60.14,119.35,60.14,121.38L60.14,121.38z M60.14,121.38"/>
	<g>
		<defs>
			<rect id="SVGID_1_" x="16.11" width="117.84" height="150"/>
		</defs>
		<clipPath id="SVGID_2_">
			<use xlink:href="#SVGID_1_"  style="overflow:visible;"/>
		</clipPath>
		<path class="st4" d="M54.53,19.5c-2.04-2.02-5.48-1.1-6.29,1.64c-0.45,1.5-0.78,3.04-1,4.6c-0.32,2.26,1.42,4.29,3.72,4.29h0.01
			c1.9,0,3.45-1.41,3.72-3.28c0.18-1.24,0.45-2.46,0.81-3.65C55.87,21.82,55.48,20.45,54.53,19.5L54.53,19.5z M54.53,19.5"/>
		<path class="st4" d="M119.18,81.05L89.66,52.2V29.67c0-10.13-4.65-19.54-12.8-25.8l-1.95-1.51c-3.56-2.75-8.54-2.82-12.18-0.17
			l-2.24,1.63c-1.35,0.98-2.61,2.06-3.78,3.22c-1.48,1.46-1.52,3.82-0.04,5.29c1.47,1.45,3.85,1.44,5.3-0.03
			c0.92-0.93,1.93-1.8,3.01-2.58l2.25-1.64c0.89-0.64,2.14-0.63,3.03,0.06l1.95,1.51c6.33,4.86,9.93,12.17,9.93,20.04v9.69
			c-9.88,2.95-22.3,1.29-27.72,0.29c0-1.68-1.38-3.05-3.08-3.05H50c-1.7,0-3.08,1.36-3.08,3.05v12.34l-29.7,29.06
			c-0.71,0.7-1.1,1.62-1.1,2.59V99.3c0,2.04,1.67,3.68,3.76,3.68h27.64v8.77c0,2.03,1.67,3.66,3.76,3.66h34.67
			c2.08,0,3.76-1.64,3.76-3.66v-8.76h26.82c2.07,0,3.76-1.67,3.76-3.72V83.65C120.28,82.67,119.87,81.75,119.18,81.05L119.18,81.05z
			 M46.92,95.64H23.63V85.18l23.29-22.8V95.64z M54.58,53.84c0.06-0.52,0-1.03-0.15-1.53v-5.17c3.53,0.59,8.8,1.25,14.55,1.25
			c4.28,0,8.84-0.37,13.17-1.4v4.79c-0.32,0.64-0.43,1.36-0.33,2.06c0.09,2.47,0.06,24.99-0.02,41.8H54.6
			C54.52,78.82,54.47,56.3,54.58,53.84L54.58,53.84z M82.18,108.07H55.03v-4.49h27.15V108.07z M112.76,95.64h-23.1V62.58l23.1,22.59
			V95.64z M112.76,95.64"/>
	</g>
</g>
</svg>
