<svg id="time" xmlns="http://www.w3.org/2000/svg" width="40.818" height="47.518" viewBox="0 0 40.818 47.518">
  <path id="Caminho_8" data-name="Caminho 8" d="M45.463,15.255l2.022-3.516a.7.7,0,0,0-.258-.955L44.369,9.142a.7.7,0,0,0-.955.258L41.4,12.913a20.245,20.245,0,0,0-5.714-1.524V9.251H37.1a.7.7,0,0,0,.7-.7v-3.3a.7.7,0,0,0-.7-.7H29.569a.7.7,0,0,0-.7.7v3.3a.7.7,0,0,0,.7.7h1.419v2.135a20.245,20.245,0,0,0-5.714,1.524L23.255,9.4A.7.7,0,0,0,22.3,9.14l-2.858,1.642a.7.7,0,0,0-.258.955l2.022,3.518a20.408,20.408,0,1,0,24.258,0ZM44.279,10.7l1.645.947-1.618,2.816q-.8-.511-1.644-.948ZM30.268,5.956H36.4v1.9H30.268Zm2.118,3.3h1.9v2.021c-.314-.015-.629-.025-.949-.025s-.634.01-.949.024Zm-11.641,2.4,1.645-.945,1.616,2.813q-.845.436-1.644.948ZM33.335,50.664A19.009,19.009,0,1,1,52.344,31.656,19.009,19.009,0,0,1,33.335,50.664Z" transform="translate(-12.926 -4.557)" fill="#0c89d1"/>
  <path id="Caminho_9" data-name="Caminho 9" d="M53.936,56.426a15.792,15.792,0,0,0-.043-15.811.65.65,0,0,0-.032-.07.667.667,0,0,0-.04-.054,15.961,15.961,0,0,0-5.637-5.607.6.6,0,0,0-.06-.044.642.642,0,0,0-.07-.031,15.79,15.79,0,0,0-15.81.043.711.711,0,0,0-.071.033.644.644,0,0,0-.053.04,15.964,15.964,0,0,0-5.608,5.637.378.378,0,0,0-.074.129A15.791,15.791,0,0,0,26.48,56.5a.694.694,0,0,0,.032.07c.009.015.022.026.032.04a15.96,15.96,0,0,0,5.643,5.62.679.679,0,0,0,.061.044c.018.01.037.014.055.023a15.794,15.794,0,0,0,15.844-.045c.017-.008.036-.012.052-.022a.6.6,0,0,0,.053-.04A15.964,15.964,0,0,0,53.87,56.54c.011-.016.024-.027.034-.044a.576.576,0,0,0,.032-.07Zm-5.852,4.225-.9-1.532a.7.7,0,1,0-1.207.707l.9,1.535a14.345,14.345,0,0,1-5.994,1.631V61.209a.7.7,0,1,0-1.4,0v1.784a14.342,14.342,0,0,1-5.92-1.6l.891-1.54a.7.7,0,1,0-1.21-.7l-.89,1.538a14.562,14.562,0,0,1-4.262-4.239l1.533-.9a.7.7,0,1,0-.707-1.207l-1.535.9a14.345,14.345,0,0,1-1.632-5.994h1.784a.7.7,0,1,0,0-1.4H25.754a14.345,14.345,0,0,1,1.595-5.921l1.54.891a.7.7,0,1,0,.7-1.211l-1.538-.89a14.561,14.561,0,0,1,4.238-4.261l.9,1.533a.7.7,0,0,0,1.207-.707l-.9-1.535a14.338,14.338,0,0,1,5.994-1.631V35.91a.7.7,0,1,0,1.4,0V34.127a14.345,14.345,0,0,1,5.921,1.594l-.893,1.54a.7.7,0,1,0,1.21.7l.89-1.54a14.563,14.563,0,0,1,4.262,4.24l-1.533.9a.7.7,0,1,0,.707,1.207l1.536-.9a14.352,14.352,0,0,1,1.631,5.994H52.835a.7.7,0,1,0,0,1.4h1.784a14.345,14.345,0,0,1-1.595,5.92l-1.54-.891a.7.7,0,0,0-.7,1.211l1.538.89A14.56,14.56,0,0,1,48.084,60.651Z" transform="translate(-19.777 -21.46)" fill="#0c89d1"/>
  <path id="Caminho_10" data-name="Caminho 10" d="M69.747,56.526a.7.7,0,0,0-.7-.7H62.314A3.2,3.2,0,0,0,59.9,53.411V46.678a.7.7,0,1,0-1.4,0v6.733a3.193,3.193,0,1,0,3.814,3.814h6.733A.7.7,0,0,0,69.747,56.526ZM59.2,58.321a1.8,1.8,0,1,1,1.8-1.8A1.8,1.8,0,0,1,59.2,58.321Z" transform="translate(-38.791 -29.427)" fill="#0c89d1"/>
</svg>
