<svg id="time" xmlns="http://www.w3.org/2000/svg" width="25.766" height="29.995" viewBox="0 0 25.766 29.995">
  <path id="Caminho_8" data-name="Caminho 8" d="M33.465,11.31l1.276-2.22a.441.441,0,0,0-.163-.6l-1.8-1.036a.441.441,0,0,0-.6.163L30.9,9.832A12.779,12.779,0,0,0,27.29,8.87V7.52h.9a.441.441,0,0,0,.441-.441V5a.441.441,0,0,0-.441-.441H23.431A.441.441,0,0,0,22.99,5v2.08a.441.441,0,0,0,.441.441h.9V8.868a12.779,12.779,0,0,0-3.607.962L19.446,7.613a.441.441,0,0,0-.6-.163l-1.8,1.036a.441.441,0,0,0-.163.6l1.276,2.221a12.882,12.882,0,1,0,15.312,0Zm-.748-2.876,1.038.6L32.734,10.81q-.5-.322-1.037-.6ZM23.873,5.44h3.871v1.2H23.873ZM25.21,7.52h1.2V8.8c-.2-.009-.4-.016-.6-.016s-.4.006-.6.015ZM17.862,9.032l1.038-.6,1.02,1.776q-.533.275-1.037.6Zm7.947,24.629a12,12,0,1,1,12-12,12,12,0,0,1-12,12Z" transform="translate(-12.926 -4.557)" fill="#0c89d1"/>
  <path id="Caminho_9" data-name="Caminho 9" d="M43.021,47.681a9.969,9.969,0,0,0-.027-9.98.41.41,0,0,0-.02-.044.422.422,0,0,0-.025-.034,10.075,10.075,0,0,0-3.558-3.539.381.381,0,0,0-.038-.027.405.405,0,0,0-.044-.02,9.967,9.967,0,0,0-9.98.027.449.449,0,0,0-.045.021l-.034.025a10.077,10.077,0,0,0-3.54,3.558.239.239,0,0,0-.047.082,9.968,9.968,0,0,0,.027,9.98.438.438,0,0,0,.02.044c.006.01.014.017.02.025a10.075,10.075,0,0,0,3.562,3.547.429.429,0,0,0,.039.028c.011.006.023.009.035.014a9.97,9.97,0,0,0,10-.029c.011-.005.022-.008.033-.014a.376.376,0,0,0,.034-.025,10.077,10.077,0,0,0,3.546-3.568c.007-.01.015-.017.021-.028a.364.364,0,0,0,.02-.044Zm-3.694,2.667-.567-.967a.441.441,0,1,0-.762.446l.568.969a9.055,9.055,0,0,1-3.784,1.03V50.7a.441.441,0,1,0-.883,0v1.126a9.053,9.053,0,0,1-3.737-1.007l.562-.972a.441.441,0,1,0-.764-.442l-.562.971A9.192,9.192,0,0,1,26.709,47.7l.968-.567a.441.441,0,1,0-.446-.762l-.969.568a9.055,9.055,0,0,1-1.03-3.784h1.126a.441.441,0,1,0,0-.883H25.232a9.055,9.055,0,0,1,1.007-3.738l.972.562a.441.441,0,1,0,.442-.764l-.971-.562a9.192,9.192,0,0,1,2.675-2.69l.567.968a.441.441,0,0,0,.762-.446l-.568-.969A9.051,9.051,0,0,1,33.9,33.6V34.73a.441.441,0,1,0,.883,0V33.6a9.055,9.055,0,0,1,3.738,1.006l-.564.972a.441.441,0,1,0,.764.442l.562-.972a9.193,9.193,0,0,1,2.691,2.676l-.968.567a.441.441,0,1,0,.446.762l.969-.568a9.059,9.059,0,0,1,1.03,3.784H42.326a.441.441,0,1,0,0,.883h1.126a9.055,9.055,0,0,1-1.007,3.737l-.972-.562a.441.441,0,1,0-.442.764l.971.562A9.191,9.191,0,0,1,39.327,50.347Z" transform="translate(-21.459 -25.609)" fill="#0c89d1"/>
  <path id="Caminho_10" data-name="Caminho 10" d="M64.679,52.637a.441.441,0,0,0-.441-.441h-4.25a2.021,2.021,0,0,0-1.525-1.525V46.42a.441.441,0,1,0-.883,0v4.25a2.016,2.016,0,1,0,2.407,2.408h4.25A.442.442,0,0,0,64.679,52.637ZM58.022,53.77a1.134,1.134,0,1,1,1.133-1.133A1.134,1.134,0,0,1,58.022,53.77Z" transform="translate(-45.139 -35.531)" fill="#0c89d1"/>
</svg>
