<?xml version="1.0" encoding="utf-8"?>
<!-- Generator: Adobe Illustrator 24.0.3, SVG Export Plug-In . SVG Version: 6.00 Build 0)  -->
<svg version="1.1" id="Layer_1" xmlns="http://www.w3.org/2000/svg" xmlns:xlink="http://www.w3.org/1999/xlink" x="0px" y="0px"
	 viewBox="0 0 150 150" style="enable-background:new 0 0 150 150;" xml:space="preserve">
<style type="text/css">
	.st0{clip-path:url(#SVGID_2_);fill:#00F993;}
	.st1{clip-path:url(#SVGID_2_);fill:#222051;}
	.st2{fill:#302C58;}
	.st3{clip-path:url(#SVGID_4_);fill:#302C58;}
	.st4{clip-path:url(#SVGID_4_);fill:#232323;}
	.st5{fill:#494949;}
</style>
<g>
	<g>
		<defs>
			<rect id="SVGID_1_" x="10.21" width="129.69" height="150.3"/>
		</defs>
		<clipPath id="SVGID_2_">
			<use xlink:href="#SVGID_1_"  style="overflow:visible;"/>
		</clipPath>
		<path class="st0" d="M134.56,8.94c-12.17,5.11-24.32,10.2-36.49,15.31C86.04,19.2,74,14.15,61.98,9.1
			c-0.04-0.02-0.09-0.04-0.11-0.04c-0.11-0.04-0.19-0.09-0.29-0.13c-0.04-0.02-0.06-0.02-0.11-0.02c-0.21-0.08-0.4-0.13-0.61-0.15
			c-0.15-0.02-0.27-0.04-0.42-0.04c-0.13,0-0.27,0.02-0.42,0.04c-0.19,0.02-0.4,0.06-0.58,0.15c-0.04,0-0.09,0-0.13,0.02
			c-0.09,0.04-0.19,0.08-0.27,0.13c-0.04,0-0.08,0.02-0.11,0.04c-12.21,5.11-24.42,10.24-36.62,15.38
			c-1.63,0.67-2.89,1.89-2.89,3.77v117.31c0,1.07,0.36,1.91,0.9,2.51c0.77,1.3,2.2,2.08,4.06,1.28
			c12.02-5.05,24.05-10.08,36.05-15.13c12.02,5.05,24.05,10.08,36.05,15.13c0.52,0.23,1,0.31,1.44,0.31h0.23
			c0.46,0,0.95-0.08,1.47-0.31c12.34-5.18,24.68-10.35,37.02-15.52c1.61-0.69,2.87-1.91,2.87-3.79V12.73
			C139.53,10.44,136.97,7.93,134.56,8.94L134.56,8.94z M134.56,8.94"/>
		<path class="st1" d="M50.22,0.39c0.19-0.08,0.4-0.13,0.59-0.15c0.15-0.02,0.29-0.04,0.42-0.04c0.15,0,0.27,0.02,0.42,0.04
			c0.21,0.02,0.4,0.06,0.61,0.15c0.04,0,0.06,0,0.11,0.02c0.1,0.04,0.19,0.08,0.29,0.12c0.02,0,0.06,0.02,0.11,0.04
			c12.02,5.05,24.07,10.1,36.09,15.15c12.17-5.11,24.32-10.2,36.49-15.32c2.41-1,4.97,1.51,4.97,3.79v117.31
			c0,1.88-1.26,3.1-2.87,3.79c-12.34,5.17-24.68,10.35-37.02,15.52c-0.52,0.23-1,0.32-1.46,0.32h-0.23c-0.44,0-0.92-0.09-1.44-0.32
			c-12-5.05-24.03-10.08-36.05-15.12c-12,5.05-24.03,10.08-36.05,15.12c-1.87,0.8-3.29,0.02-4.06-1.28c-0.54-0.6-0.9-1.44-0.9-2.51
			V19.72c0-1.88,1.26-3.1,2.89-3.77C25.29,10.82,37.5,5.69,49.71,0.57c0.02-0.02,0.06-0.04,0.11-0.04c0.08-0.04,0.19-0.08,0.27-0.13
			C50.13,0.39,50.17,0.39,50.22,0.39L50.22,0.39z M122.45,118.94V10.07c-9.72,4.09-19.42,8.17-29.14,12.23v108.87
			C103.03,127.09,112.73,123.02,122.45,118.94L122.45,118.94z M84.4,131.17V22.3c-9.72-4.06-19.44-8.15-29.16-12.23v108.87
			C64.97,123.02,74.69,127.09,84.4,131.17L84.4,131.17z M47.22,118.94V10.07c-9.72,4.09-19.44,8.17-29.16,12.23v108.87
			C27.78,127.09,37.5,123.02,47.22,118.94L47.22,118.94z M47.22,118.94"/>
	</g>
	<path class="st2" d="M18.06,22.3v108.87c9.72-4.08,19.44-8.15,29.16-12.23V10.07C37.5,14.15,27.78,18.23,18.06,22.3L18.06,22.3z
		 M43.64,51.89c-0.01,0.35-0.21,0.67-0.52,0.82l-18.93,9.06c-0.62,0.3-1.33-0.15-1.33-0.83V33.89c0-0.37,0.22-0.7,0.55-0.85
		l19.25-8.46c0.62-0.27,1.31,0.19,1.3,0.86L43.64,51.89z M43.64,51.89"/>
	<path class="st2" d="M55.24,10.07v108.87c9.72,4.09,19.44,8.15,29.16,12.23V22.3C74.69,18.23,64.97,14.15,55.24,10.07L55.24,10.07z
		 M79.6,112.98c0,0.91-0.92,1.54-1.77,1.21l-17.57-6.84c-0.5-0.19-0.83-0.68-0.83-1.21V26.28c0-0.94,0.97-1.57,1.83-1.19l17.82,8
		c0.47,0.21,0.77,0.68,0.77,1.19L79.6,112.98z M79.6,112.98"/>
	<g>
		<defs>
			<rect id="SVGID_3_" x="10.21" width="129.69" height="150.3"/>
		</defs>
		<clipPath id="SVGID_4_">
			<use xlink:href="#SVGID_3_"  style="overflow:visible;"/>
		</clipPath>
		<path class="st3" d="M93.31,22.3v108.87c9.72-4.08,19.42-8.15,29.14-12.23V10.07C112.73,14.15,103.03,18.23,93.31,22.3L93.31,22.3
			z M119.4,114.92c0,0.45-0.27,0.85-0.68,1.01l-20.33,8.27c-0.72,0.29-1.51-0.24-1.51-1.02V96.5c0-0.45,0.28-0.85,0.69-1.02
			l20.33-8.03c0.72-0.28,1.5,0.24,1.5,1.02V114.92z M119.4,81.93c0,0.44-0.27,0.85-0.68,1.01l-20.33,8.27
			c-0.72,0.3-1.51-0.23-1.51-1.01V63.51c0-0.45,0.28-0.85,0.69-1.02l20.33-8.04c0.72-0.28,1.5,0.25,1.5,1.02V81.93z M119.4,47.89
			c0,0.45-0.27,0.85-0.68,1.02l-20.33,8.27c-0.72,0.29-1.51-0.24-1.51-1.01V29.47c0-0.45,0.28-0.85,0.69-1.02l20.33-8.04
			c0.72-0.28,1.5,0.25,1.5,1.02V47.89z M119.4,47.89"/>
		<path class="st4" d="M50.22,0.39c0.19-0.08,0.4-0.13,0.59-0.15c0.15-0.02,0.29-0.04,0.42-0.04c0.15,0,0.27,0.02,0.42,0.04
			c0.21,0.02,0.4,0.06,0.61,0.15c0.04,0,0.06,0,0.11,0.02c0.1,0.04,0.19,0.08,0.29,0.12c0.02,0,0.06,0.02,0.11,0.04
			c12.02,5.05,24.07,10.1,36.09,15.15c12.17-5.11,24.32-10.2,36.49-15.32c2.41-1,4.97,1.51,4.97,3.79v117.31
			c0,1.88-1.26,3.1-2.87,3.79c-12.34,5.17-24.68,10.35-37.02,15.52c-0.52,0.23-1,0.32-1.46,0.32h-0.23c-0.44,0-0.92-0.09-1.44-0.32
			c-12-5.05-24.03-10.08-36.05-15.12c-12,5.05-24.03,10.08-36.05,15.12c-1.87,0.8-3.29,0.02-4.06-1.28c-0.54-0.6-0.9-1.44-0.9-2.51
			V19.72c0-1.88,1.26-3.1,2.89-3.77C25.29,10.82,37.5,5.69,49.71,0.57c0.02-0.02,0.06-0.04,0.11-0.04c0.08-0.04,0.19-0.08,0.27-0.13
			C50.13,0.39,50.17,0.39,50.22,0.39L50.22,0.39z M122.45,118.94V10.07c-9.72,4.09-19.42,8.17-29.14,12.23v108.87
			C103.03,127.09,112.73,123.02,122.45,118.94L122.45,118.94z M84.4,131.17V22.3c-9.72-4.06-19.44-8.15-29.16-12.23v108.87
			C64.97,123.02,74.69,127.09,84.4,131.17L84.4,131.17z M47.22,118.94V10.07c-9.72,4.09-19.44,8.17-29.16,12.23v108.87
			C27.78,127.09,37.5,123.02,47.22,118.94L47.22,118.94z M47.22,118.94"/>
	</g>
	<path class="st5" d="M18.06,22.3v108.87c9.72-4.08,19.44-8.15,29.16-12.23V10.07C37.5,14.15,27.78,18.23,18.06,22.3L18.06,22.3z
		 M43.64,51.89c-0.01,0.35-0.21,0.67-0.52,0.82l-18.93,9.06c-0.62,0.3-1.33-0.15-1.33-0.83V33.89c0-0.37,0.22-0.7,0.55-0.85
		l19.25-8.46c0.62-0.27,1.31,0.19,1.3,0.86L43.64,51.89z M43.64,51.89"/>
	<path class="st5" d="M55.24,10.07v108.87c9.72,4.09,19.44,8.15,29.16,12.23V22.3C74.69,18.23,64.97,14.15,55.24,10.07L55.24,10.07z
		 M79.6,112.98c0,0.91-0.92,1.54-1.77,1.21l-17.57-6.84c-0.5-0.19-0.83-0.68-0.83-1.21V26.28c0-0.94,0.97-1.57,1.83-1.19l17.82,8
		c0.47,0.21,0.77,0.68,0.77,1.19L79.6,112.98z M79.6,112.98"/>
	<path class="st5" d="M93.31,22.3v108.87c9.72-4.08,19.42-8.15,29.14-12.23V10.07C112.73,14.15,103.03,18.23,93.31,22.3L93.31,22.3z
		 M119.4,114.92c0,0.45-0.27,0.85-0.68,1.01l-20.33,8.27c-0.72,0.29-1.51-0.24-1.51-1.02V96.5c0-0.45,0.28-0.85,0.69-1.02
		l20.33-8.03c0.72-0.28,1.5,0.24,1.5,1.02V114.92z M119.4,81.93c0,0.44-0.27,0.85-0.68,1.01l-20.33,8.27
		c-0.72,0.3-1.51-0.23-1.51-1.01V63.51c0-0.45,0.28-0.85,0.69-1.02l20.33-8.04c0.72-0.28,1.5,0.25,1.5,1.02V81.93z M119.4,47.89
		c0,0.45-0.27,0.85-0.68,1.02l-20.33,8.27c-0.72,0.29-1.51-0.24-1.51-1.01V29.47c0-0.45,0.28-0.85,0.69-1.02l20.33-8.04
		c0.72-0.28,1.5,0.25,1.5,1.02V47.89z M119.4,47.89"/>
</g>
</svg>
