<svg xmlns="http://www.w3.org/2000/svg" width="395.185" height="87.194" viewBox="0 0 395.185 87.194">
  <g id="Group_435" data-name="Group 435" transform="translate(-211 -390.359)">
    <path id="Path_221" data-name="Path 221" d="M791.625,447.725A22.01,22.01,0,0,1,813.549,469.7v22.256H803.1V469.7a11.5,11.5,0,1,0-23.008,0h0v22.256H769.649V469.7a22.007,22.007,0,0,1,21.972-21.972Z" transform="translate(-411.371 -42.243)" fill="#0089d1"/>
    <path id="Path_222" data-name="Path 222" d="M448.355,461.718a12.309,12.309,0,0,0-8.521-3.542,11.221,11.221,0,0,0-8.162,3.341,11.085,11.085,0,0,0-3.4,8.138V491.91H417.8V469.654a22.037,22.037,0,0,1,22.03-21.972,19.058,19.058,0,0,1,14.7,6.042Z" transform="translate(-152.284 -42.199)" fill="#0089d1"/>
    <path id="Path_223" data-name="Path 223" d="M1003.659,488.976a21.588,21.588,0,0,1-11.762,3.293,22.058,22.058,0,1,1,22.16-22.112v22.112h-10.4Zm-19.948-27.012a11.643,11.643,0,1,0,8.186-3.388,11.335,11.335,0,0,0-8.186,3.392Z" transform="translate(-558.86 -42.559)" fill="#0089d1"/>
    <path id="Path_224" data-name="Path 224" d="M601.842,488.976a21.591,21.591,0,0,1-11.763,3.293,22.058,22.058,0,1,1,22.16-22.112v22.112h-10.4Zm-19.948-27.012a11.643,11.643,0,1,0,8.186-3.388,11.336,11.336,0,0,0-8.186,3.392Z" transform="translate(-262.975 -42.559)" fill="#0089d1"/>
    <path id="Path_225" data-name="Path 225" d="M1217.339,406.677v22.444a11.34,11.34,0,1,1-22.68,0V413.03a6.353,6.353,0,0,0-6.353-6.353h0l-3.809-.024h-13.438l.041-14.672h-9.882l-.041,14.672h-8.517l.041,10.029h8.517V450.9h9.882V416.682h13.069v12.436a21.846,21.846,0,0,0,21.784,21.784h.1a21.846,21.846,0,0,0,21.784-21.784V406.677Z" transform="translate(-693.408 -1.194)" fill="#0089d1"/>
    <path id="Path_226" data-name="Path 226" d="M1516.158,447.725a18.586,18.586,0,0,1,18.255,18.3v25.925h0a10.306,10.306,0,0,1-10.306-10.306h0V466.028a7.953,7.953,0,0,0-7.95-7.953,7.621,7.621,0,0,0-5.6,2.3,7.7,7.7,0,0,0-2.352,5.645V491.95H1497.76V466.025a7.929,7.929,0,0,0-15.858-.081V491.95h-10.35V466.025c0-9.954,5.745-16.1,16.414-18.157,0,0,9.011-.8,15.018,5.367C1502.983,453.235,1506.517,447.725,1516.158,447.725Z" transform="translate(-928.229 -42.243)" fill="#0089d1"/>
    <g id="Group_434" data-name="Group 434" transform="translate(211 390.359)">
      <path id="Path_227" data-name="Path 227" d="M233.9,445.948a22.68,22.68,0,1,0,22.683,22.683A22.68,22.68,0,0,0,233.9,445.948Zm0,34.579a11.9,11.9,0,1,1,11.9-11.9v0A11.9,11.9,0,0,1,233.9,480.527Z" transform="translate(-211.163 -431.293)" fill="#0089d1"/>
      <path id="Path_228" data-name="Path 228" d="M371.706,390.732s-8.7-1.689-12.723,2.123-1.108,12.822-1.108,12.822,8.346,2.229,12.521-1.741C374.514,400.022,371.706,390.732,371.706,390.732Z" transform="translate(-318.403 -390.359)" fill="#0089d1"/>
      <path id="Path_229" data-name="Path 229" d="M377.493,494.092" transform="translate(-333.6 -466.745)" fill="#0089d1"/>
      <path id="Path_230" data-name="Path 230" d="M256.425,631.342v-1.313H245.64v1.409a11.9,11.9,0,1,1-23.791.562q0-.165,0-.33v-1.614H211v1.662a22.714,22.714,0,0,0,45.425-.383Z" transform="translate(-211 -566.844)" fill="#0089d1"/>
    </g>
  </g>
</svg>
