<svg id="Layer_1" xmlns="http://www.w3.org/2000/svg" viewBox="0 0 612 232.4"><style>.st0{fill:#1d1d1b}.st1{fill:#575756}.st2{fill:#fff}.st3{fill:#4fe882}.st4{fill:#3c3c3b}.st5{fill:#868686}.st6{fill:#231f20}</style><switch><g><path class="st0" d="M264.8 106.6h.8v18.1h-.8v-18.1zM281.5 118.5h-11.1c0 1.1.3 2 .8 2.9.5.8 1.2 1.5 2 2 .9.5 1.8.7 2.9.7.9 0 1.7-.2 2.4-.5s1.3-.8 1.8-1.4l.5.5c-.6.7-1.3 1.2-2.1 1.5-.8.4-1.7.5-2.6.5-1.2 0-2.3-.3-3.3-.8s-1.7-1.3-2.3-2.3c-.6-1-.8-2.1-.8-3.3 0-1.2.3-2.3.8-3.3s1.2-1.7 2.1-2.3c.9-.5 1.9-.8 3.1-.8 1.1 0 2.1.3 3 .8.9.5 1.6 1.3 2.1 2.2.5 1 .8 2.1.8 3.3v.3zm-8.5-5.2c-.8.4-1.4 1.1-1.8 1.8-.5.8-.7 1.7-.8 2.7h10.3c-.1-1-.3-1.9-.8-2.7-.5-.8-1.1-1.4-1.8-1.8-.8-.4-1.6-.7-2.6-.7-.9.1-1.7.3-2.5.7zM292.8 113.1c.8.8 1.2 1.9 1.2 3.4v8.2h-.8v-2.5c-.4.8-1 1.5-1.8 1.9s-1.8.7-2.9.7c-1.4 0-2.5-.3-3.3-1-.8-.7-1.2-1.5-1.2-2.6 0-1 .4-1.9 1.1-2.5s1.9-1 3.5-1h4.6v-1.2c0-1.3-.3-2.2-1-2.9-.7-.7-1.6-1-2.9-1-.9 0-1.7.2-2.5.5s-1.4.7-2 1.2l-.4-.6c.6-.6 1.4-1 2.2-1.4.9-.3 1.8-.5 2.7-.5 1.5.1 2.7.5 3.5 1.3zm.4 8v-2.6h-4.6c-1.3 0-2.3.2-2.9.7-.6.5-.9 1.2-.9 2 0 .9.3 1.6 1 2.1s1.6.8 2.8.8c2.2 0 3.8-1 4.6-3zM309 113.3c.9.9 1.4 2.2 1.4 3.9v7.5h-.8v-7.4c0-1.5-.4-2.6-1.1-3.4-.8-.8-1.8-1.2-3.2-1.2-1.6 0-2.8.5-3.7 1.4-.9.9-1.4 2.2-1.4 3.8v6.8h-.8V112h.8v3.1c.4-1 1.1-1.8 2-2.3.9-.6 2-.9 3.2-.9 1.4 0 2.7.5 3.6 1.4zM317.8 124.3c-1.1-.5-1.9-1.2-2.5-2.1-.6-.9-.9-2-.9-3.3 0-.5.1-1.1.2-1.8l1.9-9.5h4.8l-1.9 9.4c-.1.5-.1.9-.1 1.3 0 1.8.9 2.7 2.8 2.7 1 0 1.8-.3 2.4-.9.6-.6 1-1.7 1.3-3.1l1.9-9.4h4.8l-1.9 9.7c-1 5.2-4.1 7.7-9.1 7.7-1.3.1-2.6-.2-3.7-.7zM343.9 116.1l4.6 8.6h-5.2l-2.6-5.1-4.5 5.1h-5.8l8.1-8.8-4.4-8.3h5.2l2.5 4.9 4.3-4.9h5.5l-7.7 8.5zM59 108.5c-.2-.2-.2-.3-.2-.5s.1-.4.2-.6.3-.2.6-.2c.2 0 .4.1.6.2.2.2.2.3.2.5s-.1.4-.2.6c-.2.2-.4.2-.6.2-.2 0-.4-.1-.6-.2zm.2 3.5h.8v12.7h-.8V112zM75.2 113.3c.9.9 1.4 2.2 1.4 3.9v7.5h-.8v-7.4c0-1.5-.4-2.6-1.1-3.4-.8-.8-1.8-1.2-3.2-1.2-1.6 0-2.8.5-3.7 1.4-.9.9-1.4 2.2-1.4 3.8v6.8h-.8V112h.8v3.1c.4-1 1.1-1.8 2-2.3.9-.6 2-.9 3.2-.9 1.4 0 2.6.5 3.6 1.4zM83.4 124c-1-.5-1.7-1.3-2.2-2.3-.5-1-.8-2.1-.8-3.3 0-1.2.3-2.3.8-3.3s1.3-1.7 2.2-2.3c1-.5 2-.8 3.2-.8 1 0 1.9.2 2.7.5.8.4 1.5.9 2 1.6l-.6.5c-.5-.6-1-1.1-1.7-1.4-.7-.3-1.5-.5-2.3-.5-1 0-2 .2-2.8.7-.8.5-1.5 1.1-2 2-.5.9-.7 1.8-.7 2.9 0 1.1.2 2.1.7 3 .5.9 1.1 1.5 2 2 .8.5 1.8.7 2.8.7.8 0 1.6-.2 2.3-.5.7-.3 1.3-.8 1.7-1.4l.6.5c-.5.7-1.2 1.3-2 1.6-.8.4-1.7.5-2.7.5-1.1.1-2.2-.2-3.2-.7zM105.4 118.5H94.3c0 1.1.3 2 .8 2.9.5.8 1.2 1.5 2 2 .9.5 1.8.7 2.9.7.9 0 1.7-.2 2.4-.5s1.3-.8 1.8-1.4l.5.5c-.6.7-1.3 1.2-2.1 1.5-.8.4-1.7.5-2.6.5-1.2 0-2.3-.3-3.3-.8s-1.7-1.3-2.3-2.3c-.6-1-.8-2.1-.8-3.3 0-1.2.3-2.3.8-3.3s1.2-1.7 2.1-2.3c.9-.5 1.9-.8 3.1-.8 1.1 0 2.1.3 3 .8s1.6 1.3 2.1 2.2c.5 1 .8 2.1.8 3.3v.3zm-8.5-5.2c-.8.4-1.4 1.1-1.8 1.8-.5.8-.7 1.7-.8 2.7h10.3c-.1-1-.3-1.9-.8-2.7-.5-.8-1.1-1.4-1.8-1.8-.8-.4-1.6-.7-2.6-.7-.8.1-1.7.3-2.5.7zM118.8 112.8c.9.5 1.7 1.3 2.2 2.3.5 1 .8 2.1.8 3.3 0 1.2-.3 2.3-.8 3.3s-1.3 1.7-2.2 2.3c-.9.5-2 .8-3.2.8-1.2 0-2.3-.3-3.3-.9-1-.6-1.7-1.5-2.2-2.5v8.1h-.8V112h.8v3.5c.5-1.1 1.2-2 2.2-2.6 1-.6 2.1-1 3.3-1 1.2 0 2.3.3 3.2.9zm-.4 10.5c.8-.5 1.5-1.1 1.9-2 .5-.9.7-1.8.7-2.9s-.2-2.1-.7-3c-.5-.9-1.1-1.5-1.9-2-.8-.5-1.7-.7-2.8-.7-1 0-2 .2-2.8.7-.8.5-1.5 1.2-1.9 2-.5.9-.7 1.8-.7 3s.2 2.1.7 2.9c.5.9 1.1 1.5 1.9 2 .8.5 1.7.7 2.8.7 1.1.1 2-.2 2.8-.7zM131.8 123.9c-.3.3-.7.5-1.1.6-.5.2-.9.2-1.4.2-1 0-1.8-.3-2.4-.9s-.8-1.4-.8-2.4v-8.8h-2.4v-.6h2.4v-2.8h.8v2.8h4.2v.7h-4.2v8.7c0 .9.2 1.5.6 2 .4.5 1 .7 1.9.7s1.5-.3 2.1-.8l.3.6zM135.3 108.5c-.2-.2-.2-.3-.2-.5s.1-.4.2-.6c.2-.2.3-.2.6-.2.2 0 .4.1.6.2.2.2.2.3.2.5s-.1.4-.2.6c-.2.2-.4.2-.6.2-.3 0-.5-.1-.6-.2zm.1 3.5h.8v12.7h-.8V112zM144.1 124.1c-1.3-.6-2.3-1.5-3-2.7-.7-1.1-1-2.4-1-3.9 0-2 .5-3.7 1.4-5.3.9-1.6 2.2-2.8 3.8-3.7 1.6-.9 3.5-1.3 5.5-1.3 1.7 0 3.2.3 4.5 1 1.3.6 2.3 1.5 3 2.7.7 1.1 1 2.4 1 3.9 0 2-.5 3.7-1.4 5.3-.9 1.6-2.2 2.8-3.8 3.7-1.6.9-3.5 1.3-5.5 1.3-1.7 0-3.2-.4-4.5-1zm7.7-3.9c.8-.5 1.4-1.3 1.9-2.2.4-.9.7-1.9.7-3 0-1.2-.4-2.1-1.1-2.8-.7-.7-1.7-1-3-1-1.1 0-2 .3-2.8.8-.8.5-1.4 1.3-1.9 2.2-.4.9-.7 1.9-.7 3 0 1.2.4 2.1 1.1 2.8.7.7 1.7 1 3 1 1.1.1 2-.2 2.8-.8zM179.7 107.6l-3.4 17.1h-4l-5.6-9.4-1.9 9.4H160l3.4-17.1h4l5.7 9.4 1.9-9.4h4.7zM446.6 112.5c.8.8 1.3 2 1.3 3.5v8.6h-.9V122c-.4.9-1.1 1.5-1.9 2-.8.5-1.8.7-3 .7-1.5 0-2.6-.3-3.5-1-.8-.7-1.3-1.6-1.3-2.7s.4-1.9 1.1-2.6c.8-.7 2-1 3.7-1h4.8V116c0-1.3-.3-2.3-1-3-.7-.7-1.7-1-3-1-.9 0-1.8.2-2.6.5s-1.5.8-2.1 1.3l-.5-.6c.6-.6 1.4-1.1 2.3-1.4.9-.3 1.9-.5 2.9-.5 1.6 0 2.8.4 3.7 1.2zm.4 8.3V118h-4.8c-1.4 0-2.4.3-3 .8-.6.5-1 1.2-1 2.1 0 1 .4 1.7 1.1 2.2.7.5 1.7.8 2.9.8 2.3.1 3.9-1 4.8-3.1zM465 111.4v12c0 2.1-.5 3.7-1.6 4.8-1 1-2.6 1.5-4.7 1.5-1.2 0-2.4-.2-3.4-.6-1.1-.4-1.9-.9-2.5-1.6l.5-.6c.7.6 1.5 1.1 2.4 1.5.9.3 1.9.5 3 .5 1.9 0 3.2-.4 4.1-1.3.9-.9 1.3-2.2 1.3-4.1v-2.8c-.5 1.1-1.2 1.9-2.3 2.6-1 .6-2.2.9-3.5.9-1.2 0-2.4-.3-3.4-.8-1-.6-1.8-1.3-2.3-2.3-.6-1-.9-2.1-.9-3.3 0-1.2.3-2.4.9-3.3.6-1 1.4-1.7 2.3-2.3 1-.5 2.1-.8 3.4-.8 1.3 0 2.5.3 3.5.9 1 .6 1.8 1.5 2.3 2.6v-3.4h.9zm-3.6 11.3c.9-.5 1.6-1.2 2.1-2 .5-.9.8-1.8.8-2.9 0-1.1-.3-2.1-.8-2.9-.5-.9-1.2-1.5-2.1-2s-1.9-.7-2.9-.7-2.1.2-2.9.7c-.9.5-1.6 1.1-2.1 2-.5.9-.7 1.8-.7 2.9 0 1.1.2 2.1.7 2.9.5.9 1.2 1.5 2.1 2 .9.5 1.9.7 2.9.7s2-.2 2.9-.7zM470.5 107.7c-.2-.2-.3-.4-.3-.6 0-.2.1-.4.2-.6.2-.2.4-.2.6-.2.2 0 .4.1.6.2.2.2.3.4.3.6 0 .2-.1.4-.3.6-.2.2-.4.3-.6.3-.1-.1-.3-.2-.5-.3zm.2 3.7h.8v13.2h-.8v-13.2zM477.2 105.7h.8v18.9h-.8v-18.9zM494.6 118.1H483c0 1.1.3 2.1.8 3 .5.9 1.2 1.6 2.1 2.1.9.5 1.9.7 3 .7.9 0 1.7-.2 2.5-.5s1.4-.8 1.9-1.5l.5.6c-.6.7-1.3 1.2-2.2 1.6s-1.8.6-2.8.6c-1.3 0-2.4-.3-3.5-.9-1-.6-1.8-1.4-2.4-2.4-.6-1-.9-2.2-.9-3.5 0-1.3.3-2.4.8-3.5.5-1 1.3-1.8 2.2-2.4 1-.6 2-.9 3.2-.9 1.2 0 2.2.3 3.2.8.9.6 1.7 1.3 2.2 2.3.5 1 .8 2.1.8 3.4v.5zm-8.9-5.4c-.8.5-1.4 1.1-1.9 1.9-.5.8-.7 1.7-.8 2.8h10.8c-.1-1-.3-1.9-.8-2.8-.5-.8-1.1-1.5-1.9-1.9-.8-.5-1.7-.7-2.7-.7-1 0-1.9.3-2.7.7zM499.9 106.8h7.8c1.8 0 3.4.3 4.8.9 1.3.6 2.4 1.5 3.1 2.6.7 1.1 1.1 2.5 1.1 4 0 2.1-.5 3.9-1.4 5.5-.9 1.6-2.3 2.8-3.9 3.6-1.7.9-3.6 1.3-5.8 1.3h-9.1l3.4-17.9zm5.7 13.8c1.2 0 2.3-.3 3.2-.8.9-.5 1.6-1.2 2-2.1.5-.9.7-1.9.7-3.1 0-1.2-.4-2.1-1.1-2.8s-1.8-1-3.3-1h-3l-1.9 9.8h3.4zM525.2 110.7l-.6 3h7.9l-.7 3.8h-8l-.6 3.3h9.4l-.8 3.9h-14.3l3.6-17.9h14l-.8 3.9h-9.1zM556 106.8l-11.2 17.9h-5l-4.1-17.9h5.2l2.6 11.6 7.3-11.6h5.2z"/><g><path class="st1" d="M481.1 21.6l15.7 21.7h-1c-38.9 0-70.7 30.5-72.8 68.9l-21.7 15.6-21.5-15.5C381.8 49.9 432.9 0 495.8 0h.8l-15.5 21.6z"/></g><g><path class="st2" d="M414.8 64.6l-.3-.2-1.4 2.4-1.3-.8c-.5-.3-.8-.6-.9-1-.1-.4 0-.8.2-1.3.3-.5.7-.8 1.1-.9l-.1-.3c-.3.1-.5.2-.7.4-.2.2-.4.4-.6.7-.3.5-.4 1.1-.3 1.6.1.5.5.9 1 1.2l1.4.8-.8 1.4.3.2.8-1.4 6.9 4 .2-.3-6.9-4 1.4-2.5zM424.5 61.6c.2.5.2 1 .1 1.5s-.3 1-.6 1.5c-.4.6-.9 1-1.5 1.3-.6.3-1.2.4-1.9.3-.7-.1-1.3-.3-1.9-.7l4.2-6.1h-.1c-.7-.4-1.3-.7-2-.8-.7-.1-1.4 0-2 .3-.6.3-1.1.7-1.5 1.3-.4.6-.6 1.2-.7 1.9 0 .7.1 1.3.4 2 .3.6.8 1.2 1.5 1.6.7.5 1.4.7 2.1.8.7.1 1.4-.1 2.1-.4.6-.3 1.2-.8 1.6-1.4.3-.5.6-1 .7-1.6.1-.6.1-1.1-.1-1.7l-.4.2zm-6.1 3.8c-.5-.4-.9-.9-1.2-1.5-.3-.6-.4-1.2-.3-1.8 0-.6.2-1.2.6-1.7.4-.5.8-.9 1.4-1.2.6-.3 1.1-.4 1.8-.3.6 0 1.2.2 1.8.6l-4.1 5.9zM430.4 54.5c.1.5.1 1-.1 1.5s-.4 1-.8 1.4c-.5.6-1 .9-1.6 1.2-.6.2-1.3.3-1.9.1-.7-.1-1.3-.4-1.9-.9l4.8-5.6-.1-.1c-.6-.5-1.2-.8-1.9-1-.7-.1-1.4-.1-2 .1-.6.2-1.2.6-1.7 1.1-.5.6-.8 1.2-.9 1.8-.1.7 0 1.3.2 2 .3.7.7 1.3 1.3 1.8.6.5 1.3.9 2 1 .7.1 1.4.1 2.1-.2.7-.2 1.3-.7 1.8-1.3.4-.5.7-1 .8-1.5.2-.6.2-1.1.1-1.7l-.2.3zm-6.5 3.1c-.5-.5-.8-1-1.1-1.6-.2-.6-.3-1.2-.2-1.8.1-.6.4-1.1.8-1.6s.9-.8 1.5-1 1.2-.2 1.8-.1c.6.1 1.2.4 1.7.8l-4.5 5.3zM430.5 39.9l4.2 4.4c-.7-.4-1.5-.5-2.3-.4-.8.1-1.5.5-2.1 1.1-.5.5-.9 1.1-1.1 1.8-.2.7-.2 1.4 0 2.1.2.7.5 1.3 1.1 1.9.5.6 1.2 1 1.9 1.2.7.2 1.4.3 2.1.1.7-.2 1.3-.5 1.9-1 .6-.6 1-1.3 1.2-2.1.2-.8.1-1.6-.3-2.3l1.7 1.8.2-.2-8.1-8.6-.4.2zm6.3 7.4c.2.7.2 1.3 0 1.9-.2.6-.5 1.2-1 1.7s-1.1.8-1.7.9c-.6.1-1.3.1-1.9-.1-.6-.2-1.2-.6-1.7-1.1-.5-.5-.9-1.1-1-1.8-.2-.7-.2-1.3 0-1.9.2-.6.5-1.2 1-1.7s1.1-.8 1.7-.9c.6-.2 1.3-.1 1.9.1.6.2 1.2.6 1.7 1.1.5.6.8 1.2 1 1.8zM445.4 38c-.5-.6-1-1.1-1.7-1.4-.7-.3-1.3-.4-2.1-.3-.7.1-1.4.3-2 .8-.7.5-1.2 1.1-1.4 1.9-.3.8-.3 1.6 0 2.3l-3.6-4.9-.3.2 7.1 9.5.3-.2-1.5-2c.7.5 1.4.7 2.3.7.8 0 1.6-.3 2.3-.8.6-.4 1-1 1.3-1.6s.4-1.3.3-2.1c-.2-.7-.5-1.4-1-2.1zm.3 4c-.3.6-.7 1.1-1.2 1.5-.6.4-1.2.7-1.8.7-.7.1-1.3 0-1.9-.3-.6-.3-1.1-.7-1.6-1.3-.4-.6-.7-1.2-.8-1.9-.1-.7 0-1.3.2-1.9s.7-1.1 1.2-1.5c.6-.4 1.2-.7 1.8-.7.6-.1 1.3 0 1.9.3.6.3 1.1.7 1.6 1.3.4.6.7 1.2.8 1.9.2.7.1 1.3-.2 1.9zM450.3 31.1c-.7-.2-1.4 0-2.3.5-.5.3-1 .7-1.4 1.2-.4.5-.6 1-.8 1.5l.3.1c.1-.5.4-1 .7-1.4.3-.4.8-.8 1.3-1.1.7-.4 1.4-.6 2-.4.6.2 1.1.6 1.6 1.3l.5.8-2.7 1.6c-.9.5-1.4 1.1-1.6 1.7-.2.6-.1 1.2.2 1.7.4.6.9 1 1.5 1.1.7.1 1.4-.1 2.2-.5.7-.4 1.1-.8 1.4-1.4.3-.5.4-1.1.4-1.8l.9 1.5.3-.2-2.7-4.7c-.5-.8-1.1-1.3-1.8-1.5zm3 4.3c.2 1.5-.3 2.6-1.7 3.4-.7.4-1.4.6-1.9.5-.6-.1-1-.4-1.3-.9-.3-.5-.3-1-.2-1.5.2-.5.7-1 1.4-1.4l2.7-1.6 1 1.5zM461.7 33.3c-.3.4-.8.7-1.3.9-.6.3-1.3.4-2 .4-.7-.1-1.3-.3-1.8-.7-.5-.4-1-.9-1.3-1.6-.3-.7-.4-1.4-.4-2 0-.7.3-1.3.6-1.8.4-.5.9-1 1.5-1.3.5-.2 1-.4 1.6-.4.5 0 1 .1 1.5.4l.1-.3c-.5-.3-1-.4-1.6-.4-.6 0-1.1.1-1.7.4-.7.3-1.3.8-1.7 1.4-.4.6-.6 1.2-.7 2 0 .7.1 1.5.4 2.2.3.7.8 1.3 1.4 1.8.6.4 1.2.7 1.9.7.7.1 1.4-.1 2.1-.4.6-.3 1-.6 1.4-1 .4-.4.6-.9.8-1.4l-.3-.1c.1.3-.1.8-.5 1.2zM466.6 26.7l2.3-4.3-.4.2-3.8 6.9-2.9-8.4-.3.1 3.9 11.2.3-.1-.9-2.4 1.6-2.9 5.2 3.2.4-.1z"/></g><g><path class="st3" d="M321.5 21.6l-15.7 21.7h1c38.9 0 70.7 30.5 72.8 68.9l21.7 15.6 21.5-15.5C420.8 49.9 369.6 0 306.8 0h-.8l15.5 21.6z"/><path class="st4" d="M401.4 130.9l-21.6-15.6v.8c0 39-30.5 70.8-69 72.8l-15.7 21.8 15.5 21.5c62.4-2 112.3-53.2 112.3-116.1v-.8l-21.5 15.6zM212.1 101.4l16.5 8.9c0-.3 1.6.5 1.6.1 0-.9 3.8 4 3.8 3.2 1.3-37.7 31.2-68.1 68.6-70.3l15.7-21.8L302.9.1C244.8 2 197.4 46.6 191.3 103.5c-.5 4.2 1.4.6 1.4 4.9 0 .3 2.2.9 2.2 1.1l17.2-8.1z"/><path class="st4" d="M292 210.8l15.7-21.7h-.8c-38.9 0-70.6-30.4-72.8-68.7l-20.8 1.4-21.1-.1c.1 3.3-1.2 5-.9 8.2 6.8 57.7 55.8 102.5 115.4 102.5h.8L292 210.8z"/></g><g><path class="st1" d="M590.4 101.4l-21.8 15.8v-1c0-38.9-30.4-70.6-68.7-72.8l-15.7-21.8L499.7.1C562.1 2.1 612 53.3 612 116.2v.8l-21.6-15.6z"/></g><g><path class="st1" d="M510.6 210.8l-15.7-21.7h.8c38.9 0 70.6-30.4 72.8-68.7l21.9-15.8 21.5 15.5c-2 62.4-53.2 112.3-116.1 112.3h-.8l15.6-21.6z"/></g><g><path class="st3" d="M401.2 130.9l21.6-15.6v.8c0 39 30.5 70.8 69 72.8l15.7 21.8-15.5 21.6c-62.4-2-112.3-53.2-112.3-116.1v-.8l21.5 15.5z"/></g><g><path class="st5" d="M45.2 114.9c.4-26 14.5-48.6 35.3-61.2L58.8 16.2c-33.8 20-56.5 56.7-57 98.7h43.4zM45.2 117.5H1.8c.4 42 23.2 78.7 57 98.7l21.7-37.5c-20.8-12.6-34.8-35.3-35.3-61.2zM191.1 117.5c-.4 26.1-14.5 48.8-35.5 61.3l21.6 37.4c33.8-20 56.5-56.7 57-98.7h-43.1zM177.2 16.2l-21.6 37.4c20.9 12.5 35 35.3 35.5 61.3h43.1c-.5-42-23.2-78.7-57-98.7zM153.4 180c-10.5 5.8-22.5 9.1-35.3 9.1-12.9 0-25-3.3-35.5-9.2L61 217.4c16.8 9.5 36.3 14.9 57 14.9 20.7 0 40.2-5.4 57-14.9L153.4 180zM82.7 52.5c10.5-5.9 22.6-9.2 35.5-9.2 12.8 0 24.8 3.3 35.3 9.1L175 14.9C158.2 5.4 138.7 0 118 0 97.3 0 77.8 5.4 61 14.9l21.7 37.6z"/></g><g><path d="M19.6 128.1c-.2-.2-.4-.4-.5-.7-.1-.3-.2-.6-.2-.9-.1-.6.1-1.1.4-1.5.3-.4.8-.6 1.4-.7l6-.6-.2-1.6h.3l.2 1.6 1.8-.2v.3l-1.8.2.3 2.8H27l-.3-2.8-5.9.6c-.6.1-1 .2-1.3.6-.3.3-.4.8-.3 1.3.1.6.3 1 .6 1.3l-.2.3zM24.7 136.7l-1.3-7.2c-.7.1-1.4.4-1.9.8s-.9 1-1.1 1.6c-.2.6-.3 1.3-.1 2 .1.6.3 1.1.6 1.5.3.4.7.8 1.2 1l-.2.3c-.5-.3-.9-.7-1.2-1.1-.3-.5-.5-1-.6-1.6-.1-.8-.1-1.5.2-2.2.2-.7.6-1.2 1.2-1.7s1.2-.8 2-.9c.8-.1 1.5-.1 2.2.1.7.2 1.3.6 1.7 1.1.5.5.7 1.1.9 1.8.1.7.1 1.4-.2 2-.2.6-.6 1.2-1.2 1.6-.7.5-1.4.8-2.2.9zm2.3-6.1c-.4-.5-.9-.8-1.5-1-.6-.2-1.2-.3-1.9-.2l1.2 7c.7-.1 1.2-.4 1.7-.8s.8-.9 1-1.5c.2-.6.3-1.2.2-1.8 0-.7-.3-1.2-.7-1.7zM22.1 141.6c.2-.7.5-1.3 1-1.8s1.2-.9 1.9-1.1c.8-.2 1.5-.2 2.2-.1.7.2 1.3.5 1.8 1s.9 1.1 1.1 1.9c.2.6.2 1.2.1 1.7-.1.6-.3 1.1-.6 1.5l-.3-.2c.3-.4.5-.9.6-1.4.1-.5 0-1.1-.1-1.6-.2-.7-.5-1.3-1-1.7-.5-.5-1-.8-1.7-.9-.7-.1-1.3-.1-2.1.1-.7.2-1.3.5-1.8 1s-.8 1-1 1.7c-.2.6-.1 1.3 0 2 .2.5.4 1 .7 1.4.3.4.7.7 1.2.9l-.2.3c-.5-.2-1-.5-1.3-1-.4-.4-.6-.9-.8-1.5.2-.8.2-1.6.3-2.2zM33.3 152.6c-.3.8-1 1.3-2 1.8l-4.5 1.8-.1-.3 4.5-1.8c.9-.4 1.6-.9 1.9-1.6.3-.7.3-1.5-.1-2.3-.4-1-1-1.7-1.8-2-.8-.3-1.7-.3-2.7.1l-4.2 1.7-.1-.3 11-4.4.1.3-5.4 2.1c.7 0 1.4.2 2 .6.6.4 1 1 1.4 1.8.3.9.3 1.8 0 2.5zM38 162.1c-.2.8-.9 1.5-1.8 2l-4.3 2.3-.2-.3 4.3-2.3c.9-.5 1.5-1.1 1.7-1.8.2-.7.1-1.5-.3-2.3-.5-.9-1.2-1.5-2.1-1.8-.9-.2-1.8-.1-2.7.4l-4 2.1-.2-.3 7.3-3.9.2.3-1.9 1c.7-.1 1.4 0 2.1.3s1.2.9 1.6 1.6c.4 1.1.6 2 .3 2.7zM35.1 170.7c-.1-.7.1-1.4.4-2 .3-.6.8-1.2 1.5-1.7s1.3-.7 2.1-.8c.7-.1 1.4 0 2 .3.6.3 1.2.8 1.6 1.4.4.6.7 1.3.7 2 .1.7-.1 1.4-.4 2-.3.6-.8 1.2-1.5 1.6-.7.5-1.4.7-2.1.8-.7.1-1.4 0-2-.3-.6-.3-1.2-.8-1.6-1.4-.4-.6-.6-1.2-.7-1.9zm2.5 3.1c.6.3 1.2.4 1.9.3.7-.1 1.3-.3 1.9-.7.6-.4 1.1-.9 1.4-1.5.3-.6.4-1.2.4-1.9-.1-.6-.3-1.3-.7-1.8-.4-.6-.9-1-1.5-1.3-.6-.3-1.2-.4-1.9-.3-.7.1-1.3.3-1.9.7-.6.4-1.1.9-1.4 1.5-.3.6-.4 1.2-.4 1.9s.3 1.3.7 1.8c.4.6.9 1 1.5 1.3zM49.5 171l.2.3-9.3 7.4-.2-.2 9.3-7.5zM44.1 182.3c-.2-.7-.1-1.4.1-2.1.2-.7.6-1.3 1.2-1.9.6-.5 1.2-.9 1.9-1.1.7-.2 1.4-.2 2.1 0 .7.2 1.3.6 1.8 1.1.5.6.9 1.2 1 1.9.2.7.1 1.4-.1 2.1-.2.7-.6 1.3-1.2 1.8s-1.2.9-1.9 1.1c-.7.2-1.4.2-2.1 0-.7-.2-1.3-.6-1.8-1.1-.5-.5-.8-1.1-1-1.8zM47 185c.6.2 1.3.2 1.9 0 .7-.2 1.3-.5 1.8-1s.9-1.1 1.1-1.7c.2-.6.2-1.3.1-1.9-.1-.6-.5-1.2-.9-1.7-.5-.5-1-.9-1.6-1-.6-.2-1.3-.2-1.9 0-.7.2-1.3.5-1.8 1s-.9 1.1-1.1 1.7c-.2.6-.3 1.3-.1 1.9.1.6.5 1.2.9 1.7s1 .8 1.6 1zM61.2 187.8l-4.9 5.7c-.9 1-1.7 1.5-2.6 1.6-.9.1-1.8-.3-2.8-1.2-.6-.5-1-1-1.4-1.7-.3-.6-.5-1.2-.5-1.8h.3c.1.6.2 1.2.5 1.7.3.6.7 1.1 1.2 1.5.9.8 1.8 1.1 2.6 1.1.8-.1 1.6-.6 2.4-1.5l1.4-1.6c-.7.4-1.5.5-2.3.4-.8-.1-1.5-.4-2.2-1-.6-.5-1-1.1-1.2-1.8s-.3-1.3-.2-2c.1-.7.4-1.3.9-1.9.5-.6 1.1-1 1.8-1.2.7-.2 1.3-.3 2-.1.7.1 1.3.5 1.9 1 .7.6 1.1 1.2 1.3 2 .2.8.2 1.5-.1 2.3l1.6-1.8.3.3zm-6.3 4.1c.6.1 1.3.1 1.9-.1.6-.2 1.2-.6 1.6-1.2.5-.5.8-1.1.9-1.8.1-.6.1-1.3-.2-1.9-.2-.6-.6-1.1-1.2-1.6-.5-.5-1.1-.8-1.8-.9-.6-.1-1.3-.1-1.9.1-.6.2-1.2.6-1.6 1.1-.5.5-.8 1.1-.9 1.8-.1.6-.1 1.3.1 1.9.2.6.6 1.1 1.2 1.6.7.6 1.3.9 1.9 1zM69.1 193.5l-9.1 5.4c-.6.4-1.2.6-1.6.6-.5 0-.9-.1-1.3-.4-.6-.4-1-1-1.1-1.6l.3-.1c0 .3.1.6.3.8s.3.4.6.6c.4.2.7.4 1.1.3.4 0 .9-.2 1.4-.5l1.2-.7 1.6-8.9.3.2-1.6 8.5 7.5-4.4.4.2zM102.2 214c-.2.2-.5.3-.8.3h-.9c-.6-.1-1.1-.4-1.4-.8-.3-.4-.4-.9-.2-1.5l1.1-5.9-1.6-.3.1-.3 1.6.3.3-1.8.3.1-.3 1.8 2.8.5-.1.3-2.8-.5-1.1 5.8c-.1.6 0 1 .2 1.4.2.4.6.6 1.2.7.5.1 1 0 1.4-.3l.2.2zM111.9 211.5l-7.3-.8c-.1.7 0 1.4.3 2 .3.6.7 1.1 1.2 1.5.5.4 1.2.6 1.9.7.6.1 1.1 0 1.6-.2s1-.4 1.3-.8l.2.2c-.4.4-.9.7-1.4.9-.6.2-1.1.2-1.7.2-.8-.1-1.5-.3-2.1-.8-.6-.4-1-1-1.3-1.6-.3-.7-.4-1.4-.3-2.2.1-.8.3-1.5.7-2.1.4-.6.9-1 1.5-1.3.6-.3 1.3-.4 2-.3.7.1 1.3.3 1.9.7.5.4 1 .9 1.2 1.6.3.8.4 1.5.3 2.3zm-5.2-3.9c-.6.3-1 .6-1.4 1.1-.4.5-.6 1.1-.7 1.8l7 .7c0-.7-.1-1.3-.3-1.9-.3-.6-.6-1-1.1-1.4-.5-.4-1.1-.6-1.7-.6-.7-.1-1.3 0-1.8.3zM119.6 208.3c.5.5.7 1.2.7 2.2l-.1 5.4h-.3v-1.8c-.3.6-.7 1-1.2 1.3-.5.3-1.2.5-2 .4-.9 0-1.6-.2-2.1-.7-.5-.4-.8-1-.7-1.7 0-.7.3-1.2.7-1.6.5-.4 1.2-.6 2.3-.6l3.1.1v-.9c0-.9-.2-1.5-.6-2-.4-.4-1.1-.7-2-.7-.6 0-1.2.1-1.7.3s-1 .5-1.3.8l-.2-.2c.4-.4.9-.7 1.5-.9.6-.2 1.2-.3 1.8-.3.9.1 1.6.4 2.1.9zm.3 5.2v-1.8l-3.2-.1c-.9 0-1.6.1-2 .5-.4.3-.6.8-.7 1.4 0 .6.2 1.1.7 1.5.5.4 1.1.6 1.9.6 1.7 0 2.8-.7 3.3-2.1zM136.3 206.8c.6.5 1 1.3 1.2 2.4l.6 4.8h-.3l-.7-4.8c-.1-1-.5-1.7-1.1-2.2-.6-.5-1.3-.6-2.2-.5-1 .1-1.8.6-2.3 1.3-.5.7-.7 1.6-.6 2.7l.6 4.5h-.3l-.6-4.8c-.1-1-.5-1.7-1.1-2.2-.6-.5-1.3-.6-2.2-.5-1 .1-1.8.6-2.3 1.3-.5.7-.7 1.6-.6 2.7l.6 4.5h-.3l-1.1-8.2h.3l.3 2.2c.1-.7.5-1.3 1-1.8s1.2-.8 2-.9c.8-.1 1.6 0 2.1.3.6.3 1 .9 1.3 1.7.1-.8.4-1.4 1-1.9.5-.5 1.2-.8 2.1-1 1.1-.3 2-.2 2.6.4zM183.7 190.7c-.6.2-1.1.3-1.6.3v-.3c.4 0 .9-.1 1.5-.3.5-.2 1-.5 1.5-1 .7-.6 1.1-1.2 1.2-1.8s0-1-.4-1.5c-.3-.3-.6-.5-.9-.5-.3 0-.7.1-1 .2-.3.2-.8.4-1.3.7-.6.4-1 .6-1.4.8-.4.2-.8.2-1.2.2-.4 0-.8-.2-1.1-.6-.4-.4-.6-1-.5-1.6.1-.6.5-1.3 1.2-1.9.4-.3.8-.6 1.3-.9.5-.2.9-.3 1.3-.4v.3c-.4 0-.8.1-1.2.3-.4.2-.8.5-1.2.8-.6.6-1 1.1-1.1 1.7-.1.5 0 1 .4 1.4.3.3.6.5 1 .5s.7-.1 1-.2c.3-.2.8-.4 1.3-.7.6-.3 1-.6 1.4-.8.4-.2.7-.2 1.1-.2.4 0 .8.2 1.1.6.4.5.6 1 .5 1.7-.1.6-.6 1.3-1.3 2-.5.6-1 1-1.6 1.2zM191.8 182.4c0 .3 0 .5-.2.8-.1.3-.3.5-.5.8-.4.5-.9.7-1.4.7-.5 0-1-.2-1.4-.6l-4.4-4.1-1.1 1.2-.2-.2 1.1-1.2-1.3-1.2.2-.2 1.3 1.2 1.9-2 .2.2-1.9 2 4.3 4.1c.4.4.9.6 1.3.6s.8-.2 1.2-.6c.4-.4.6-.9.6-1.4l.3-.1zM189 174.4c.1-.7.4-1.3.9-2l.2.2-.1.1c-.6.8-.9 1.6-.7 2.4.1.8.6 1.6 1.5 2.3l3.4 2.8-.2.2-6.4-5.3.2-.2 1.7 1.4c-.4-.5-.5-1.2-.5-1.9zM194.7 167.1c.7-.1 1.4.1 2.2.6l4.4 3.1-.2.3-1.4-1c.3.5.4 1.1.4 1.8 0 .6-.3 1.2-.7 1.9-.5.8-1.1 1.2-1.8 1.4-.6.2-1.3.1-1.8-.3s-.8-.9-.9-1.5c-.1-.6.2-1.3.8-2.2l1.8-2.6-.7-.5c-.7-.5-1.4-.7-2-.6-.6.1-1.2.5-1.7 1.2-.3.5-.6 1-.7 1.5-.1.5-.2 1.1-.1 1.6l-.3.1c-.1-.5-.1-1.1.1-1.7.1-.6.4-1.1.7-1.6.6-.9 1.2-1.3 1.9-1.5zm4.5 2.6l-1.5-1-1.8 2.6c-.5.7-.8 1.4-.7 1.9 0 .5.3 1 .8 1.3.5.4 1.1.5 1.6.3.6-.2 1.1-.6 1.5-1.3.9-1.2 1-2.5.1-3.8zM204.9 163.8c.1.3.1.5 0 .8l-.3.9c-.3.6-.7.9-1.2 1-.5.1-1 0-1.5-.3l-5.2-3-.8 1.4-.3-.2.8-1.4-1.6-.9.2-.3 1.6.9 1.4-2.4.3.2-1.4 2.4 5.1 3c.5.3 1 .4 1.4.3.4-.1.8-.4 1-.9.3-.5.4-1 .3-1.4l.2-.1zM205.8 153.9l-3.2 6.6c.7.3 1.3.5 2 .4.7 0 1.3-.3 1.8-.6.5-.4 1-.9 1.3-1.6.2-.5.4-1 .4-1.6 0-.5-.1-1-.3-1.5l.3-.1c.2.5.3 1.1.3 1.6 0 .6-.2 1.1-.4 1.7-.3.7-.8 1.3-1.4 1.7-.6.4-1.3.6-2 .7-.7 0-1.5-.1-2.2-.4-.7-.3-1.3-.8-1.7-1.4-.4-.6-.7-1.2-.8-1.9-.1-.7 0-1.3.4-2 .3-.6.7-1.2 1.3-1.5.6-.4 1.2-.6 1.9-.6.8 0 1.6.1 2.3.5zm-5.5 3.6c.1.6.3 1.2.6 1.7.4.5.8.9 1.4 1.3l3-6.4c-.6-.3-1.2-.4-1.9-.3-.6.1-1.2.3-1.7.6s-.9.8-1.2 1.4c-.1.5-.2 1-.2 1.7zM205.4 143l7.1 2.5c1.2.4 2.1 1.1 2.5 1.9.4.8.4 1.8-.1 3-.3.7-.6 1.3-1 1.9-.4.5-.9.9-1.5 1.1l-.1-.3c.5-.3 1-.6 1.4-1.1.4-.5.7-1 1-1.7.4-1.1.4-2.1.1-2.8-.3-.7-1.1-1.3-2.2-1.7l-2-.7c.6.5 1 1.2 1.2 2 .2.8.2 1.6-.1 2.4-.3.7-.6 1.3-1.2 1.8-.5.5-1.1.8-1.8.9-.7.1-1.4.1-2.1-.2-.7-.3-1.3-.6-1.8-1.2-.5-.5-.8-1.2-.9-1.8-.1-.7-.1-1.4.2-2.1.3-.8.8-1.5 1.4-2 .6-.5 1.4-.7 2.2-.8l-2.3-.8v-.3zm6.1 4.4c-.1-.6-.4-1.2-.8-1.7s-1-.9-1.7-1.1c-.7-.2-1.3-.3-2-.2-.6.1-1.2.4-1.7.8s-.8 1-1.1 1.7-.3 1.3-.2 2c.1.6.4 1.2.8 1.7s1 .9 1.7 1.1c.7.2 1.3.3 2 .2.6-.1 1.2-.4 1.7-.8s.8-1 1.1-1.7.4-1.4.2-2zM207.8 133.5l8.3 6.5c.6.4 1 .9 1.1 1.3.2.4.2.9.1 1.4-.2.7-.5 1.3-1.1 1.6l-.2-.3c.3-.2.5-.3.7-.6.2-.2.3-.5.4-.8.1-.4.1-.8-.1-1.2-.2-.4-.5-.7-1-1.2l-1.1-.9-8.9 1.8.1-.4 8.5-1.7-6.9-5.3.1-.2z"/></g><g><path d="M23.2 98.2c.5-.5 1-.9 1.7-1.2.7-.2 1.4-.3 2.2-.2.8.1 1.5.4 2 .9.6.4 1 1 1.2 1.7.3.7.3 1.4.2 2.1-.1.9-.5 1.6-1.1 2.1-.6.6-1.3.9-2.1 1.1l2.5.4-.1.3-11.7-1.9.1-.3 6 1c-.7-.4-1.3-1-1.6-1.7-.4-.7-.5-1.5-.3-2.4.2-.7.5-1.4 1-1.9zm6.9 1.3c-.2-.6-.6-1.1-1.2-1.5-.5-.4-1.2-.7-1.9-.8-.7-.1-1.4-.1-2.1.2-.6.2-1.2.6-1.6 1.1-.4.5-.7 1.1-.8 1.8-.1.7-.1 1.3.2 1.9.2.6.6 1.1 1.1 1.5.5.4 1.2.7 1.9.8.7.1 1.4.1 2.1-.2.6-.2 1.2-.6 1.6-1.1.4-.5.7-1.1.8-1.8.2-.7.1-1.3-.1-1.9zM25.7 86.2l8 2.3-.1.3-2.1-.6c.6.4 1 1 1.2 1.6.2.7.2 1.4 0 2.2-.3 1-.8 1.7-1.5 2.2-.7.4-1.6.5-2.7.2L23.8 93l.1-.3 4.7 1.3c1 .3 1.8.2 2.5-.1.7-.4 1.1-1 1.4-1.9.3-1 .2-1.9-.3-2.6-.5-.8-1.2-1.3-2.2-1.6l-4.3-1.2v-.4zM34.6 85.1c-.4.5-.8.8-1.3 1l-.2-.3c.4-.2.8-.5 1.2-.9.4-.4.7-.9.9-1.5.3-.9.5-1.6.3-2.1-.1-.5-.5-.9-1-1.1-.4-.2-.7-.2-1 0-.3.1-.6.3-.8.6-.2.3-.5.7-.8 1.2-.3.6-.7 1-.9 1.3-.3.3-.6.6-1 .7-.4.1-.8.1-1.3-.1-.6-.2-.9-.6-1.1-1.2-.2-.6-.1-1.4.2-2.3.2-.5.4-.9.8-1.3.3-.4.7-.7 1-.9l.2.3c-.4.2-.7.5-1 .9-.3.4-.5.8-.7 1.2-.3.8-.4 1.5-.2 2s.5.9 1 1.1c.4.2.8.2 1.1 0 .3-.1.6-.4.8-.6.2-.3.5-.7.8-1.2.4-.6.7-1 .9-1.3s.6-.5.9-.7c.4-.1.8-.1 1.2.1.6.2 1 .7 1.2 1.3s.1 1.4-.3 2.3c-.2.5-.5 1.1-.9 1.5zM27.9 74.1h-.3c-.1-.1-.2-.1-.2-.2v-.3c0-.1.1-.2.2-.2h.3c.1 0 .2.1.2.2v.3c0 .1-.1.2-.2.2zm2.3.9l.1-.3 7.5 3.5-.1.3-7.5-3.5zM35.9 66.1c.8-.2 1.7 0 2.7.5l4.2 2.4-.2.3-4.2-2.4c-.9-.5-1.7-.7-2.4-.5-.7.2-1.3.7-1.8 1.5-.5.9-.7 1.8-.4 2.7.2.9.8 1.6 1.7 2.1l3.9 2.2-.2.3-7.1-4.2.2-.3 1.9 1.1c-.5-.6-.8-1.2-.8-1.9-.1-.7.1-1.5.6-2.2.5-.9 1.1-1.4 1.9-1.6zM45.2 58.4l-4.3 5.9c.6.4 1.2.7 1.9.8.7.1 1.3 0 1.9-.3.6-.3 1.1-.7 1.6-1.3.3-.5.6-1 .7-1.5.1-.5.1-1 0-1.6h.3c.1.6.1 1.1 0 1.7-.1.6-.4 1.1-.7 1.6-.5.6-1 1.1-1.7 1.4-.7.3-1.3.4-2.1.3-.7-.1-1.4-.4-2.1-.8-.6-.5-1.1-1-1.4-1.7-.3-.6-.4-1.3-.4-2 .1-.7.3-1.3.7-1.9.4-.6.9-1 1.6-1.3.6-.3 1.3-.4 2-.3.7.2 1.3.5 2 1zm-6 2.5c-.1.6 0 1.2.3 1.8.3.6.6 1.1 1.2 1.5l4.2-5.7c-.6-.4-1.2-.6-1.8-.6s-1.2 0-1.8.3c-.6.2-1 .6-1.4 1.1-.4.4-.7 1-.7 1.6zM50 58.8c-.5.3-1.1.5-1.5.5l-.1-.3c.4 0 .9-.2 1.4-.5.5-.3 1-.6 1.4-1.1.6-.7 1-1.3 1-1.9.1-.6-.1-1-.6-1.4-.3-.3-.6-.4-1-.4-.3 0-.7.1-1 .3-.3.2-.7.5-1.2.8-.5.4-1 .7-1.3.9-.4.2-.7.3-1.1.3-.4 0-.8-.2-1.2-.5-.4-.4-.7-.9-.6-1.6 0-.6.3-1.3 1-2 .3-.4.7-.7 1.2-1s.9-.4 1.3-.5l.1.3c-.4.1-.8.2-1.2.5-.4.2-.8.5-1.1.9-.6.6-.9 1.2-.9 1.8 0 .5.2 1 .6 1.4.3.3.7.4 1 .4.4 0 .7-.1 1-.3.3-.2.7-.5 1.2-.9s1-.7 1.3-.9c.3-.2.7-.3 1.1-.3.4 0 .8.1 1.1.5.5.4.7 1 .7 1.6-.1.6-.4 1.4-1.1 2.1-.4.6-.9 1-1.5 1.3zM54.9 53.5c-.6.3-1.1.4-1.5.4v-.3c.4 0 .9-.1 1.5-.3s1-.6 1.5-1c.7-.7 1.1-1.3 1.2-1.8s-.1-1-.5-1.4c-.3-.3-.6-.5-.9-.5-.3 0-.7.1-1 .2-.3.2-.8.4-1.3.7-.5.4-1 .6-1.4.8-.4.2-.8.3-1.2.2-.4 0-.8-.2-1.1-.6-.4-.4-.6-1-.5-1.6.1-.6.5-1.3 1.1-2 .4-.4.8-.7 1.3-.9.5-.2.9-.4 1.3-.4v.3c-.4 0-.8.2-1.2.4-.4.2-.8.5-1.1.8-.6.6-1 1.2-1 1.7s.1 1 .5 1.4c.3.3.6.5 1 .5s.7-.1 1-.2.8-.4 1.3-.8c.6-.4 1-.6 1.4-.8.4-.2.7-.3 1.1-.2.4 0 .8.2 1.1.6.5.5.6 1 .5 1.7-.1.6-.5 1.3-1.2 2-.8.5-1.3.8-1.9 1.1zM98.4 21.7c.7.2 1.3.6 1.8 1.1.5.5.8 1.2 1 2 .2.8.2 1.5 0 2.2-.2.7-.6 1.3-1.1 1.8s-1.1.8-1.9 1c-.8.2-1.6.1-2.4-.2-.8-.3-1.4-.8-1.8-1.5l1.3 5.5-.3.1-2.6-11.1.3-.1.6 2.5c.1-.8.4-1.5.9-2.2.5-.6 1.2-1 2.1-1.2.7-.2 1.4-.1 2.1.1zm1.5 6.9c.5-.4.8-1 1-1.6.2-.6.2-1.3 0-2.1-.2-.7-.5-1.3-.9-1.8s-1-.9-1.6-1c-.6-.2-1.3-.2-2-.1-.7.2-1.3.5-1.7.9-.5.5-.8 1-1 1.7-.2.6-.2 1.3 0 2.1.2.7.5 1.3.9 1.8s1 .8 1.6 1c.6.2 1.3.2 1.9 0 .7-.2 1.3-.5 1.8-.9zM110.6 23.6l-7.3.9c.1.7.3 1.4.7 1.9s.9 1 1.5 1.2c.6.3 1.3.3 2 .3.6-.1 1.1-.2 1.5-.5.5-.3.8-.6 1.1-1.1l.2.2c-.3.5-.7.9-1.2 1.2-.5.3-1 .5-1.6.6-.8.1-1.5 0-2.2-.3-.7-.3-1.2-.7-1.6-1.3-.4-.6-.7-1.3-.8-2.1-.1-.8 0-1.5.2-2.2.3-.7.6-1.2 1.2-1.6s1.2-.7 1.9-.8c.7-.1 1.4 0 2 .3.6.3 1.1.7 1.5 1.3.6.4.8 1.1.9 2zm-5.9-2.8c-.5.4-.8.8-1.1 1.4-.2.6-.3 1.2-.3 1.9l7-.8c-.1-.7-.4-1.2-.7-1.7-.4-.5-.9-.9-1.4-1.1-.6-.2-1.2-.3-1.8-.3-.7 0-1.2.3-1.7.6zM114.5 27.1c-.6-.3-1.1-.8-1.5-1.5-.4-.6-.5-1.4-.6-2.2 0-.8.1-1.5.5-2.2.3-.6.8-1.1 1.4-1.5.6-.4 1.3-.6 2-.6.8 0 1.4.2 2.1.5.6.3 1.1.8 1.5 1.5.4.6.5 1.3.6 2.1 0 .8-.1 1.5-.5 2.2-.3.6-.8 1.2-1.4 1.5-.6.4-1.3.6-2 .6-.8.1-1.4-.1-2.1-.4zm4-.4c.6-.3 1-.8 1.3-1.4.3-.6.5-1.3.4-2 0-.7-.2-1.4-.5-2-.3-.6-.8-1-1.4-1.4-.6-.3-1.2-.5-1.9-.5s-1.3.2-1.9.5c-.6.3-1 .8-1.3 1.4-.3.6-.5 1.3-.4 2 0 .7.2 1.4.5 2 .3.6.8 1 1.4 1.4.6.3 1.2.5 1.9.5s1.3-.1 1.9-.5zM129.8 20.4c.6.4 1 1 1.3 1.6s.4 1.4.3 2.2c-.1.8-.3 1.5-.7 2.1-.4.6-.9 1-1.6 1.3-.6.3-1.3.4-2.1.3-.8-.1-1.6-.4-2.2-.9-.6-.5-1-1.2-1.2-2l-.5 5.6h-.3l1.1-11.3h.3l-.2 2.5c.4-.8.9-1.3 1.6-1.7.7-.4 1.5-.6 2.3-.5.6.1 1.3.4 1.9.8zm-.8 7c.6-.3 1.1-.7 1.5-1.2.4-.6.6-1.2.7-2 .1-.7 0-1.4-.3-2-.3-.6-.7-1.1-1.2-1.5-.5-.4-1.1-.6-1.8-.7-.7-.1-1.3 0-1.9.3-.6.3-1.1.7-1.5 1.3s-.6 1.2-.7 2c-.1.7 0 1.4.3 2 .3.6.7 1.1 1.2 1.5.5.4 1.1.6 1.8.7s1.3-.1 1.9-.4zM135.5 17.1l.3.1-2.1 11.7-.3-.1 2.1-11.7zM144.7 27.2l-7.1-1.8c-.2.7-.2 1.4 0 2.1.2.7.5 1.2 1 1.7s1.1.8 1.8 1c.5.1 1.1.2 1.6.1s1-.3 1.4-.6l.2.3c-.5.3-1 .5-1.6.6-.6.1-1.2.1-1.7-.1-.8-.2-1.4-.5-1.9-1s-.9-1.1-1.1-1.8c-.2-.7-.2-1.5 0-2.2.2-.8.5-1.4 1-2 .5-.5 1-.9 1.7-1.1.7-.2 1.3-.2 2 0s1.3.5 1.8 1 .8 1.1 1 1.8c.1.4.1 1.1-.1 2zm-4.6-4.7c-.6.2-1.1.5-1.5.9-.4.4-.8 1-1 1.6l6.8 1.7c.1-.7.1-1.3-.1-1.9-.2-.6-.5-1.1-.9-1.6-.4-.4-1-.7-1.6-.9-.5 0-1.1 0-1.7.2zM188.8 50.7c.2.7.2 1.4-.1 2.1-.2.7-.6 1.3-1.2 1.9-.6.6-1.2.9-1.9 1.1-.7.2-1.4.2-2.1 0-.7-.2-1.3-.6-1.8-1.1-.6-.6-1-1.3-1.1-2.1-.1-.8 0-1.6.3-2.3l-4 3.9-.2-.2 8.3-8 .2.2-1.8 1.8c.8-.4 1.5-.5 2.3-.3.8.1 1.5.5 2.1 1.2.5.4.9 1.1 1 1.8zm-5.1 4.8c.6.2 1.3.2 1.9 0 .6-.2 1.2-.5 1.8-1.1.5-.5.9-1.1 1.1-1.7.2-.6.2-1.3.1-1.9-.2-.6-.5-1.2-1-1.7s-1-.8-1.7-1c-.6-.2-1.3-.2-1.9 0-.6.2-1.2.5-1.8 1.1-.5.5-.9 1.1-1.1 1.7s-.2 1.3-.1 1.9c.2.6.5 1.2 1 1.7.5.4 1.1.8 1.7 1zM193.1 55.7c.6.2 1.2.6 1.7 1.2l-.2.2-.1-.1c-.6-.8-1.4-1.2-2.2-1.2s-1.7.3-2.5 1l-3.5 2.8-.2-.2 6.4-5.2.2.2-1.7 1.3c.8-.1 1.5-.2 2.1 0zM190.7 64.4c0-.7.1-1.4.4-2s.8-1.2 1.5-1.6c.7-.4 1.4-.7 2.1-.8.7-.1 1.4 0 2 .4.6.3 1.2.8 1.6 1.4.4.6.7 1.3.7 2s-.1 1.4-.4 2c-.3.6-.8 1.2-1.5 1.6-.7.4-1.4.7-2.1.8-.7.1-1.4 0-2-.4-.6-.3-1.2-.8-1.6-1.4-.5-.6-.7-1.3-.7-2zm2.4 3.1c.6.3 1.2.4 1.9.3.7-.1 1.3-.3 1.9-.7.6-.4 1.1-.9 1.4-1.5.3-.6.4-1.2.4-1.9s-.3-1.3-.7-1.8c-.4-.6-.9-1-1.5-1.3-.6-.3-1.2-.4-1.9-.3-.7.1-1.3.3-1.9.7-.6.4-1.1.9-1.4 1.5-.3.6-.4 1.2-.4 1.9s.3 1.3.7 1.8.9 1.1 1.5 1.3zM208.7 72.5L198.2 78l-.1-.3 2.2-1.2c-.8.1-1.6 0-2.3-.4s-1.3-.9-1.7-1.7c-.3-.7-.5-1.3-.5-2.1 0-.7.2-1.4.6-2 .4-.6 1-1.1 1.7-1.5.7-.4 1.4-.6 2.2-.5.7 0 1.4.2 2 .6.6.4 1.1.9 1.4 1.6.4.8.5 1.5.4 2.3-.1.8-.4 1.5-1 2.1l5.4-2.8.2.4zm-10.9 3.3c.6.3 1.2.5 1.8.5.7 0 1.3-.2 2-.5s1.2-.8 1.6-1.4c.4-.6.6-1.2.6-1.8 0-.7-.1-1.3-.4-1.9-.3-.6-.8-1.1-1.3-1.4-.6-.3-1.2-.5-1.8-.5-.7 0-1.3.2-2 .5s-1.2.8-1.6 1.4c-.4.6-.6 1.2-.6 1.8 0 .7.1 1.3.4 1.9.3.6.8 1.1 1.3 1.4zM209.8 84.6l-7.7 3-.1-.3 2-.8c-.7 0-1.4-.2-2-.6-.6-.4-1-1-1.3-1.7-.4-1-.4-1.9-.1-2.6.3-.8 1-1.4 2.1-1.8l4.6-1.8.1.3-4.6 1.8c-.9.4-1.6.9-1.9 1.6-.3.7-.3 1.5.1 2.4.4 1 1 1.6 1.8 1.9.8.3 1.7.3 2.7-.1l4.2-1.6.1.3zM203.8 91.7c.2-.7.5-1.3 1.1-1.8.5-.5 1.2-.9 2-1.1.8-.2 1.5-.2 2.2-.1.7.2 1.3.5 1.8 1s.8 1.1 1.1 1.9c.2.6.2 1.2.1 1.7-.1.6-.3 1.1-.6 1.5l-.3-.2c.3-.4.5-.9.6-1.4.1-.5.1-1.1-.1-1.6-.2-.7-.5-1.3-1-1.7-.5-.5-1-.8-1.7-.9-.7-.2-1.3-.1-2.1.1-.7.2-1.3.5-1.8 1s-.8 1-1 1.6c-.2.6-.2 1.3 0 2 .1.5.4 1 .7 1.4.3.4.7.7 1.2.9l-.2.3c-.5-.2-.9-.5-1.3-1-.4-.4-.6-1-.8-1.5-.1-.7-.1-1.4.1-2.1zM206.3 102.8c-.2-.1-.4-.4-.6-.6-.2-.3-.3-.6-.3-.9-.1-.6 0-1.1.3-1.6.3-.4.8-.7 1.4-.8l5.9-1.1-.3-1.6.3-.1.3 1.6 1.8-.3.1.3-1.8.3.5 2.8-.3.1-.5-2.8-5.8 1c-.6.1-1 .3-1.2.7-.3.3-.3.8-.2 1.3.1.5.3 1 .7 1.3l-.3.4z"/></g><g><path class="st2" d="M237.9 171.7l.2.2-9.2 7.5-.2-.2 9.2-7.5zM239.3 184.7l-5.1-5.3c-.5.5-.9 1.1-1.1 1.7-.2.6-.2 1.3-.1 1.9.2.6.5 1.2 1 1.8.4.4.8.7 1.3.9.5.2 1 .3 1.5.2v.3c-.6 0-1.1-.1-1.7-.3-.5-.2-1-.6-1.4-1-.5-.6-.9-1.2-1.1-1.9-.2-.7-.1-1.4.1-2.1.2-.7.6-1.3 1.2-1.9.6-.6 1.2-.9 1.9-1.1.7-.2 1.4-.2 2 0 .7.2 1.2.5 1.7 1.1.5.5.8 1.1 1 1.8.1.7.1 1.3-.1 2-.1.7-.5 1.3-1.1 1.9zm-1.4-6.4c-.6-.2-1.2-.2-1.8 0-.6.1-1.2.4-1.7.9l4.9 5.1c.5-.5.8-1 1-1.6.2-.6.2-1.2.1-1.8-.1-.6-.4-1.1-.9-1.6s-1-.8-1.6-1zM247.2 187.1c.1.7-.2 1.4-.8 2.1l-3.6 4.1-.2-.2 1.2-1.3c-.6.3-1.2.3-1.8.2s-1.2-.4-1.8-.9c-.7-.6-1.1-1.2-1.2-1.9-.1-.7.1-1.3.5-1.8s1-.8 1.6-.8c.6 0 1.3.3 2.1 1l2.4 2.1.6-.7c.6-.7.8-1.3.8-1.9 0-.6-.4-1.2-1.1-1.8-.5-.4-.9-.7-1.5-.9-.5-.2-1-.3-1.6-.2v-.3c.5 0 1.1.1 1.7.3.6.2 1.1.5 1.6.9.6.7 1 1.3 1.1 2zm-3.1 4.3l1.2-1.4-2.4-2.1c-.7-.6-1.3-.9-1.8-.9s-1 .2-1.4.6c-.4.5-.6 1-.5 1.6.1.6.5 1.1 1.1 1.7 1.2 1 2.5 1.2 3.8.5zM251.9 190.5c.7 0 1.3.3 2 .8l-.2.3-.1-.1c-.8-.6-1.6-.8-2.4-.6-.8.2-1.6.7-2.2 1.6l-2.6 3.6-.3-.2 4.9-6.7.3.2-1.3 1.7c.6-.4 1.2-.6 1.9-.6zM260.6 196.6c.2.8 0 1.7-.6 2.6l-2.5 4.2-.3-.2 2.5-4.2c.5-.9.7-1.7.5-2.4s-.7-1.3-1.5-1.8c-.9-.6-1.8-.7-2.7-.5-.9.2-1.6.8-2.1 1.7l-2.3 3.9-.3-.2 4.3-7.1.3.2-1.1 1.9c.6-.5 1.2-.7 2-.8.7 0 1.4.2 2.2.6.9.6 1.4 1.3 1.6 2.1zM346.9 197.9l-.1 9.1-.3.1-6.9-6 .3-.2 6.5 5.7v-8.7h.5zM352.8 195.4c.7.2 1.3.7 1.7 1.5l2.7 4.7-.3.2-.9-1.5c0 .6-.1 1.2-.4 1.8-.3.5-.8 1-1.5 1.4-.8.5-1.5.6-2.2.5-.7-.1-1.2-.5-1.5-1.1-.3-.6-.4-1.2-.2-1.7.2-.6.8-1.1 1.7-1.6l2.7-1.5-.4-.8c-.4-.8-.9-1.2-1.5-1.4-.6-.2-1.3 0-2 .4-.5.3-1 .7-1.3 1.1-.3.4-.6.9-.8 1.4l-.3-.1c.2-.5.4-1 .8-1.5s.8-.9 1.4-1.2c.9-.6 1.6-.8 2.3-.6zm2.9 4.3l-.9-1.6-2.7 1.5c-.8.4-1.3.9-1.5 1.4-.2.5-.2 1 .1 1.5.3.5.8.9 1.3 1 .6.1 1.2-.1 1.9-.5 1.5-.6 2-1.8 1.8-3.3zM354 189.5l.3-.2 6.5 9.9-.3.2-6.5-9.9zM357.8 188.4c-.1 0-.2-.1-.3-.2-.1-.1-.1-.2-.1-.3s.1-.2.2-.3c.1-.1.2-.1.3-.1.1 0 .2.1.3.2.1.1.1.2.1.3 0 .1-.1.2-.2.3-.1.1-.2.1-.3.1zm1.5 1.9l.3-.2 4.9 6.7-.3.2-4.9-6.7zM365.5 180.7l7.7 9-.2.2-1.6-1.9c.3.8.4 1.6.1 2.3-.2.8-.6 1.5-1.3 2-.6.5-1.2.8-1.9.9-.7.1-1.4.1-2.1-.2-.7-.3-1.3-.7-1.8-1.3-.5-.6-.9-1.3-1-2-.1-.7-.1-1.4.1-2.1.2-.7.6-1.2 1.2-1.7.6-.6 1.4-.9 2.2-1 .8-.1 1.6.1 2.3.5l-4-4.7h.3zm5.6 9.8c.2-.6.3-1.3.1-1.9-.1-.7-.5-1.3-.9-1.8-.5-.6-1-1-1.7-1.2-.6-.2-1.3-.3-1.9-.2-.6.1-1.2.4-1.8.9-.5.4-.9 1-1.1 1.6-.2.6-.3 1.3-.1 1.9.1.7.5 1.3.9 1.8.5.6 1 1 1.7 1.2.6.2 1.3.3 1.9.2.6-.1 1.2-.4 1.8-.8.5-.5.8-1.1 1.1-1.7zM374.2 177.9c.7 0 1.4.3 2.1.9l3.9 3.7-.2.2-1.3-1.2c.2.6.3 1.2.1 1.8-.1.6-.5 1.2-1 1.7-.6.7-1.3 1-1.9 1.1-.7.1-1.2-.1-1.8-.6-.5-.5-.7-1-.7-1.6 0-.6.4-1.3 1.1-2.1l2.2-2.3-.7-.6c-.6-.6-1.3-.9-1.9-.9-.6 0-1.2.3-1.8 1-.4.4-.7.9-.9 1.4-.2.5-.3 1-.3 1.5h-.3c0-.6.1-1.1.3-1.7.2-.6.6-1.1 1-1.5.7-.4 1.3-.7 2.1-.8zm4 3.3l-1.3-1.3-2.2 2.3c-.6.7-.9 1.2-1 1.8 0 .5.2 1 .6 1.4.5.4 1 .6 1.6.5.6-.1 1.2-.4 1.7-1 1.1-1.1 1.3-2.3.6-3.7zM384.8 176.1c0 .3 0 .5-.1.8-.1.3-.3.6-.4.8-.4.5-.9.8-1.4.8-.5 0-1-.1-1.5-.5l-4.7-3.7-1 1.2-.2-.2 1-1.2-1.4-1.1.2-.3 1.4 1.1 1.8-2.2.2.2-1.8 2.2 4.6 3.7c.5.4.9.5 1.3.5s.8-.3 1.2-.7c.3-.4.5-.9.5-1.4h.3zM387.1 166.5l-4.1 6.1c.6.4 1.3.7 1.9.7.7.1 1.3-.1 1.9-.4.6-.3 1.1-.7 1.5-1.3.3-.5.5-1 .6-1.5.1-.5.1-1-.1-1.5l.3-.1c.2.5.2 1.1.1 1.7s-.3 1.1-.7 1.6c-.4.7-1 1.1-1.6 1.5-.6.3-1.3.4-2.1.4-.7-.1-1.4-.3-2.1-.8-.7-.4-1.2-1-1.5-1.6-.3-.6-.5-1.3-.5-2s.2-1.3.7-1.9c.4-.6.9-1 1.5-1.3.6-.3 1.3-.4 2-.3.8-.1 1.5.2 2.2.7zm-5.9 2.7c0 .6.1 1.2.4 1.8.3.6.7 1.1 1.2 1.5l4-5.8c-.6-.4-1.2-.5-1.8-.6-.6 0-1.2.1-1.8.3-.5.3-1 .7-1.4 1.2-.4.4-.6 1-.6 1.6z"/></g><g><path class="st2" d="M233.3 46.4l8.8 7.9-.2.2-1.9-1.7c.4.7.6 1.5.5 2.3-.1.8-.4 1.5-1 2.2-.5.6-1.1.9-1.8 1.2-.7.2-1.4.2-2.1.1-.7-.2-1.4-.5-2-1-.6-.5-1-1.1-1.3-1.8-.2-.7-.3-1.4-.1-2.1.1-.7.5-1.3 1-1.9.6-.6 1.3-1 2-1.2.8-.2 1.6-.1 2.3.2l-4.6-4.1.4-.3zm6.9 9.1c.1-.6.1-1.3-.1-1.9-.2-.6-.6-1.2-1.2-1.7s-1.2-.8-1.8-1c-.7-.2-1.3-.1-1.9.1-.6.2-1.2.6-1.6 1.1-.5.5-.8 1.1-.9 1.7-.1.6-.1 1.3.1 1.9.2.6.6 1.2 1.2 1.7s1.2.8 1.8 1 1.3.1 1.9-.1c.6-.2 1.2-.6 1.6-1.1.5-.5.8-1.1.9-1.7zM246.8 44.4l-5.5 4.9c.5.6 1.1.9 1.7 1.2.6.2 1.3.3 1.9.1s1.3-.5 1.8-.9c.4-.4.7-.8 1-1.3.2-.5.3-1 .3-1.5h.3c0 .6-.1 1.1-.3 1.6-.2.5-.6 1-1 1.4-.6.5-1.2.9-1.9 1-.7.1-1.4.1-2.1-.1s-1.3-.7-1.8-1.3c-.5-.6-.9-1.2-1.1-1.9-.2-.7-.2-1.4 0-2 .2-.7.6-1.2 1.1-1.7.5-.5 1.1-.8 1.8-.9.7-.1 1.3-.1 2 .2.6.2 1.2.6 1.8 1.2zm-6.4 1.2c-.2.6-.2 1.2-.1 1.8.1.6.4 1.2.8 1.7l5.3-4.7c-.5-.5-1-.8-1.6-1-.6-.2-1.2-.2-1.8-.1-.6.1-1.1.4-1.6.8s-.8 1-1 1.5zM251.4 45.8c-.6.2-1.1.2-1.6.2v-.3c.4.1.9 0 1.5-.1.6-.2 1.1-.4 1.6-.8.8-.6 1.2-1.1 1.4-1.6.2-.5.1-1-.3-1.5-.2-.3-.5-.5-.9-.6-.3 0-.7 0-1 .1-.3.1-.8.3-1.4.6-.6.3-1.1.5-1.5.6s-.8.2-1.2.1-.7-.3-1.1-.7c-.4-.5-.5-1-.3-1.7.2-.6.6-1.2 1.4-1.8.4-.3.9-.5 1.4-.7.5-.2.9-.3 1.3-.2v.3c-.4 0-.8.1-1.3.2-.4.2-.9.4-1.2.7-.7.5-1.1 1-1.3 1.6-.1.5-.1 1 .3 1.4.3.4.6.6.9.6.3.1.7 0 1.1-.1.4-.1.8-.3 1.4-.6.6-.3 1.1-.5 1.5-.6.4-.1.8-.2 1.2-.1.4.1.7.3 1 .7.4.5.5 1.1.3 1.7-.2.6-.7 1.2-1.5 1.8-.5.3-1.1.6-1.7.8zM251.5 33c-.1 0-.2-.1-.3-.2-.1-.1-.1-.2-.1-.3 0-.1.1-.2.2-.3.1-.1.2-.1.3-.1s.2.1.3.2c.1.1.1.2 0 .3 0 .1-.1.2-.2.3 0 .1-.1.1-.2.1zm1.4 1.9l.3-.2 4.5 6.9-.3.2-4.5-6.9zM263 29.1l3.6 6.6c.6 1.2.8 2.2.6 3-.3.9-.9 1.6-2.1 2.2-.7.4-1.3.6-2 .7-.7.1-1.3 0-1.9-.1l.1-.3c.6.2 1.2.2 1.8.1.6-.1 1.2-.3 1.8-.6 1.1-.6 1.7-1.2 1.9-2 .2-.8.1-1.7-.5-2.8l-1-1.8c.1.8 0 1.6-.4 2.3-.4.7-.9 1.3-1.7 1.7-.7.4-1.4.5-2.1.5-.7 0-1.4-.2-2-.6-.6-.4-1.1-.9-1.5-1.6-.4-.7-.5-1.4-.5-2.1 0-.7.2-1.4.6-2 .4-.6.9-1.1 1.6-1.4.8-.4 1.6-.6 2.4-.5.8.1 1.5.4 2.1.9l-1.1-2.1.3-.1zm1.5 7.4c.4-.5.5-1.1.5-1.8s-.2-1.3-.5-1.9c-.3-.6-.8-1.1-1.3-1.5-.6-.3-1.2-.5-1.8-.5-.7 0-1.3.2-1.9.5-.6.3-1.1.8-1.5 1.3-.4.5-.5 1.1-.5 1.8 0 .6.2 1.3.5 1.9.3.6.8 1.1 1.3 1.5.6.4 1.2.5 1.8.5.7 0 1.3-.2 1.9-.5.7-.3 1.2-.8 1.5-1.3zM273 25.8c.8.3 1.3 1 1.8 2.1l1.8 4.5-.3.1-1.8-4.5c-.4-.9-.9-1.6-1.6-1.9-.7-.3-1.5-.3-2.3.1-1 .4-1.7 1-2 1.8s-.3 1.7.1 2.7l1.7 4.2-.4.1-3-7.7.3-.1.8 2.1c0-.7.2-1.4.6-2 .4-.6 1-1 1.8-1.4.9-.4 1.8-.5 2.5-.1z"/><path class="st6" d="M356.7 34.1c.3.6.5 1.3.5 2s-.2 1.4-.6 2.1c-.4.7-.9 1.2-1.5 1.6-.6.4-1.3.6-2 .6s-1.4-.2-2-.6c-.7-.4-1.3-1-1.6-1.8-.3-.7-.4-1.5-.3-2.3l-2.8 4.8-.3-.2 5.7-9.8.3.2-1.3 2.2c.6-.5 1.4-.8 2.2-.9.8-.1 1.6.1 2.3.6.6.4 1.1.9 1.4 1.5zm-3.7 6c.7 0 1.3-.2 1.8-.5.6-.3 1.1-.8 1.4-1.5.4-.6.6-1.3.6-2s-.1-1.3-.4-1.9c-.3-.6-.8-1-1.4-1.4-.6-.4-1.2-.5-1.9-.5s-1.3.2-1.8.5c-.6.3-1.1.8-1.4 1.5-.4.6-.6 1.3-.6 2s.1 1.3.5 1.9c.3.6.8 1 1.4 1.4.5.4 1.2.5 1.8.5zM362.2 37.9c.7 0 1.3.3 2 .7l-.2.3-.1-.1c-.8-.6-1.6-.8-2.4-.6-.8.2-1.6.7-2.2 1.6l-2.6 3.6-.3-.2 4.8-6.7.3.2-1.2 1.7c.6-.3 1.2-.5 1.9-.5zM362.1 46.9c-.2-.7-.3-1.4-.1-2.1.2-.7.5-1.4 1-2 .5-.6 1.1-1 1.8-1.3.7-.3 1.4-.3 2.1-.2.7.1 1.3.4 1.9.9.6.5 1 1.1 1.2 1.7.2.7.3 1.4.1 2.1-.1.7-.5 1.4-1 2-.5.6-1.1 1-1.8 1.3-.7.3-1.4.3-2.1.2-.7-.1-1.3-.4-1.9-.9-.6-.4-1-1-1.2-1.7zm3.2 2.4c.6.1 1.3.1 1.9-.2.6-.2 1.2-.6 1.7-1.2s.8-1.2.9-1.8c.1-.7.1-1.3-.1-1.9s-.6-1.1-1.1-1.6c-.5-.4-1.1-.7-1.8-.9-.6-.1-1.3-.1-1.9.2-.6.2-1.2.6-1.7 1.2s-.8 1.2-.9 1.8c-.1.7-.1 1.3.1 1.9.2.6.6 1.2 1.1 1.6.5.5 1.1.8 1.8.9zM371.1 55.3c-.3 0-.5-.1-.8-.2-.3-.1-.5-.3-.7-.5-.4-.5-.7-.9-.6-1.4 0-.5.2-1 .7-1.4l4.3-4.2-1.1-1.1.2-.2 1.1 1.1 1.3-1.3.2.2-1.3 1.3 2 2-.2.2-2-2-4.2 4.1c-.4.4-.6.8-.7 1.3 0 .4.2.8.6 1.2.4.4.8.6 1.3.6l-.1.3zM373.1 57.5c-.1-.7 0-1.4.2-2.1.3-.7.7-1.3 1.3-1.8.6-.5 1.3-.8 2-1 .7-.1 1.4-.1 2.1.2.7.2 1.2.7 1.7 1.2.5.6.8 1.2.9 1.9.1.7 0 1.4-.2 2.1s-.7 1.3-1.3 1.8c-.6.5-1.3.8-2 1-.7.1-1.4.1-2.1-.1-.7-.2-1.2-.7-1.7-1.2-.5-.6-.8-1.3-.9-2zm2.7 2.9c.6.2 1.3.3 1.9.1s1.3-.4 1.9-.9c.6-.5 1-1 1.2-1.7.2-.6.3-1.3.2-1.9-.1-.6-.4-1.2-.8-1.8-.4-.5-1-.9-1.6-1.1-.6-.2-1.2-.3-1.9-.1-.7.1-1.3.4-1.9.9-.6.5-1 1-1.2 1.7-.3.6-.3 1.3-.2 1.9.1.6.4 1.2.8 1.8.5.5 1 .9 1.6 1.1zM380.6 67.3c-.3 0-.5-.2-.8-.3-.3-.2-.5-.4-.6-.7-.4-.5-.5-1-.4-1.5.1-.5.4-.9.9-1.3l4.9-3.4-.9-1.3.3-.2.9 1.3 1.5-1 .2.3-1.5 1 1.6 2.3-.3.2-1.6-2.3-4.8 3.4c-.5.3-.8.7-.9 1.1-.1.4 0 .8.3 1.3s.7.7 1.2.8v.3z"/><path class="st6" d="M391.5 70.6l-10.5 1c-.7.1-1.3 0-1.7-.2-.4-.2-.8-.5-1-.9-.4-.6-.5-1.3-.3-1.9l.3.1c-.1.3-.1.6-.1.9 0 .3.1.5.3.8.2.4.5.6.9.8.4.1.9.2 1.5.1l1.4-.1 5.2-7.4.2.3-5 7.1 8.6-.9.2.3zM394.7 78.5c-.1.7-.3 1.4-.8 1.9-.4.6-1 1-1.7 1.4-.7.3-1.5.5-2.2.4-.7-.1-1.4-.3-2-.7-.6-.4-1-1-1.3-1.6-.4-.8-.5-1.6-.3-2.4.1-.8.5-1.5 1.1-2.1l-5.1 2.3-.1-.3 10.4-4.7.1.3-2.3 1c.8-.1 1.6.1 2.3.5.7.4 1.2 1 1.6 1.8.3.8.4 1.5.3 2.2zm-6.4 2.8c.5.4 1.1.6 1.8.6s1.3-.1 2-.4c.7-.3 1.2-.7 1.6-1.3.4-.5.6-1.1.7-1.8.1-.7 0-1.3-.3-1.9-.3-.6-.7-1.1-1.2-1.5-.5-.4-1.1-.6-1.8-.6s-1.3.1-2 .4c-.7.3-1.2.7-1.6 1.3-.4.5-.6 1.1-.7 1.8-.1.6.1 1.3.3 1.9.2.6.6 1.1 1.2 1.5zM395.3 90.9l-2.3-7c-.7.2-1.3.6-1.8 1.1-.5.5-.8 1.1-.9 1.7s-.1 1.3.1 2c.2.5.4 1 .8 1.4.4.4.8.7 1.3.9l-.1.3c-.5-.2-1-.5-1.4-1-.4-.4-.7-.9-.9-1.5-.2-.8-.3-1.5-.2-2.2.1-.7.5-1.3 1-1.9.5-.5 1.1-.9 1.9-1.2.8-.2 1.5-.3 2.2-.2.7.1 1.3.4 1.8.8s.9 1 1.1 1.7c.2.7.3 1.4.1 2-.2.7-.5 1.3-1 1.8-.3.6-.9 1-1.7 1.3zm1.5-6.4c-.5-.4-1-.7-1.6-.8-.6-.1-1.2-.1-1.9.1l2.2 6.7c.6-.2 1.2-.6 1.6-1.1.4-.5.7-1 .8-1.6.1-.6.1-1.2-.1-1.8-.2-.6-.6-1.1-1-1.5z"/></g><g><path class="st6" d="M407.5 144.6c.5.4.9 1 1.2 1.8l-.3.1v-.1c-.3-.9-.8-1.6-1.6-1.9-.8-.3-1.7-.3-2.7 0l-4.2 1.4-.1-.3 7.9-2.5.1.3-2 .7c.5-.1 1.2.1 1.7.5zM408.1 156.2l-2.8-6.8c-.7.3-1.2.7-1.7 1.2-.4.5-.7 1.1-.8 1.8s0 1.3.3 2c.2.5.5 1 .9 1.3.4.4.8.6 1.3.8l-.1.3c-.5-.2-1-.5-1.4-.9-.4-.4-.7-.9-1-1.4-.3-.7-.4-1.5-.3-2.2s.4-1.4.8-1.9c.5-.6 1.1-1 1.8-1.3.7-.3 1.5-.4 2.2-.4.7.1 1.3.3 1.9.7.6.4 1 .9 1.2 1.6.3.7.4 1.3.3 2-.1.7-.4 1.3-.8 1.8-.4.7-1 1.1-1.8 1.4zm1-6.4c-.5-.4-1-.6-1.7-.7-.6-.1-1.3 0-1.9.2l2.7 6.5c.6-.3 1.1-.7 1.5-1.2.4-.5.6-1.1.7-1.7.1-.6 0-1.2-.2-1.8-.2-.5-.6-1-1.1-1.3zM416.4 163.1l-10 5.5-.2-.3 4.9-2.7c-.8.1-1.6 0-2.3-.3-.7-.4-1.3-.9-1.7-1.7-.4-.7-.5-1.3-.5-2s.2-1.4.6-2c.4-.6.9-1.1 1.6-1.5.7-.4 1.4-.6 2.1-.6.7 0 1.4.2 2 .6.6.4 1.1.9 1.5 1.5.4.8.6 1.5.5 2.3-.1.8-.4 1.5-1 2.1l2.2-1.2.3.3zm-7.6 1.8c.6.3 1.2.5 1.8.5.7 0 1.3-.2 2-.5.7-.4 1.2-.8 1.5-1.4.4-.6.6-1.2.6-1.8 0-.7-.1-1.3-.5-1.9-.3-.6-.8-1.1-1.3-1.4s-1.2-.5-1.9-.5-1.3.2-2 .5c-.7.4-1.2.8-1.5 1.4-.4.6-.6 1.2-.6 1.8 0 .7.1 1.3.5 1.9.4.6.9 1 1.4 1.4zM422.3 171.8l-6.8 4.8-.2-.3 1.8-1.3c-.7.2-1.4.2-2.1-.1-.7-.2-1.2-.7-1.7-1.4-.6-.9-.9-1.7-.7-2.6.1-.8.7-1.6 1.6-2.2l4-2.8.2.3-4 2.8c-.8.6-1.3 1.3-1.4 2-.1.7.1 1.5.6 2.3.6.8 1.3 1.3 2.2 1.4.9.1 1.7-.1 2.6-.7l3.7-2.6.2.4zM424.6 174.5l.2.2-6.4 5.3-.2-.2 6.4-5.3zm1.8-1.6c0-.1.1-.2.1-.3.1-.1.2-.1.3-.1.1 0 .2.1.3.2.1.1.1.2.1.3 0 .1-.1.2-.1.3-.1.1-.2.1-.3.1-.1 0-.2-.1-.3-.1-.1-.2-.1-.3-.1-.4zM427.8 178.9c.7.1 1.3.5 1.8 1.1l-.2.2-.1-.1c-.7-.7-1.4-1.1-2.3-1.1-.8 0-1.7.4-2.5 1.2l-3.3 3-.2-.2 6.1-5.6.2.2-1.6 1.5c.8-.2 1.5-.3 2.1-.2zM433.3 189.2l-5.4-5c-.5.6-.8 1.2-1 1.8-.2.7-.1 1.3.1 1.9s.6 1.2 1.1 1.7c.4.4.9.7 1.4.8.5.2 1 .2 1.5.1v.3c-.6.1-1.1 0-1.7-.2-.6-.2-1-.5-1.5-.9-.6-.5-1-1.1-1.2-1.8s-.2-1.4-.1-2.1c.2-.7.5-1.4 1.1-2 .5-.6 1.1-1 1.8-1.3.7-.2 1.3-.3 2-.2.7.1 1.3.4 1.8.9s.9 1.1 1.1 1.7c.2.7.2 1.3 0 2-.1 1.1-.4 1.7-1 2.3zm-1.8-6.3c-.6-.1-1.2-.1-1.8.1-.6.2-1.1.5-1.6 1l5.2 4.8c.4-.5.7-1.1.8-1.7.1-.6.1-1.2-.1-1.8-.2-.6-.5-1.1-1-1.5-.4-.5-.9-.7-1.5-.9zM447.9 195.7c.1.8-.1 1.7-.7 2.6l-2.8 4-.3-.2 2.8-4c.6-.8.8-1.6.7-2.3-.1-.7-.5-1.4-1.3-1.9-.9-.6-1.7-.8-2.6-.6-.9.2-1.6.7-2.2 1.6l-2.5 3.7-.3-.2 2.8-4c.6-.8.8-1.6.7-2.3-.1-.7-.5-1.4-1.3-1.9-.9-.6-1.7-.8-2.6-.6-.9.2-1.6.7-2.2 1.6l-2.5 3.7-.3-.2 4.7-6.8.3.2-1.2 1.8c.6-.4 1.3-.7 2-.7s1.4.2 2.1.7c.7.5 1.2 1 1.4 1.7.2.7.2 1.4-.2 2.1.6-.5 1.3-.8 2-.8s1.5.2 2.2.7c.7.6 1.2 1.3 1.3 2.1zM456.3 203.6l-6.6-3.2c-.3.7-.5 1.3-.4 2 0 .7.2 1.3.6 1.8.4.6.9 1 1.5 1.3.5.2 1 .4 1.6.4.5 0 1-.1 1.5-.3l.1.3c-.5.2-1.1.3-1.7.3-.6 0-1.1-.2-1.7-.4-.7-.3-1.3-.8-1.7-1.4-.4-.6-.6-1.3-.7-2s.1-1.5.5-2.2c.4-.7.8-1.3 1.4-1.7.6-.4 1.2-.7 1.9-.7.7-.1 1.3.1 2 .4.6.3 1.1.8 1.5 1.3.4.6.6 1.2.6 1.9.2.7 0 1.5-.4 2.2zm-3.5-5.5c-.6 0-1.2.2-1.7.6-.5.3-.9.8-1.3 1.4l6.3 3.1c.3-.6.4-1.2.3-1.9 0-.6-.2-1.2-.6-1.7-.3-.5-.8-.9-1.4-1.2s-1-.3-1.6-.3zM466.1 203.8c.4.8.3 1.7 0 2.7l-1.7 4.6-.3-.1 1.7-4.6c.3-1 .4-1.8.1-2.5-.3-.7-.9-1.2-1.8-1.5-1-.4-1.9-.4-2.7 0-.8.4-1.4 1.1-1.7 2.1l-1.5 4.2-.3-.1 2.8-7.8.3.1-.8 2.1c.5-.6 1.1-.9 1.8-1.1.7-.2 1.5-.1 2.3.2.8.4 1.5 1 1.8 1.7zM472.2 212.7c-.2.1-.5.2-.8.2-.3 0-.6 0-.9-.1-.6-.2-1.1-.5-1.3-.9-.2-.4-.3-1-.1-1.6l1.5-5.8-1.5-.4.1-.3 1.5.4.5-1.7.3.1-.5 1.7 2.7.7-.1.3-2.7-.7-1.5 5.7c-.1.6-.1 1 .1 1.4.2.4.6.6 1.1.8.5.1 1 .1 1.5-.1l.1.3zM475.1 213.6c-.5-.3-.9-.7-1.2-1l.2-.2c.3.4.6.7 1.1 1s1 .5 1.7.6c.9.2 1.6.1 2.1-.1s.8-.6.9-1.2c.1-.4 0-.8-.2-1-.2-.3-.4-.5-.8-.7-.3-.2-.8-.4-1.3-.6-.6-.2-1.1-.5-1.5-.7-.4-.2-.7-.5-.9-.8-.2-.3-.3-.8-.2-1.3.1-.6.4-1 1-1.4.6-.3 1.3-.4 2.3-.2.5.1 1 .3 1.5.5s.8.5 1.1.8l-.2.2c-.3-.3-.6-.6-1-.8-.4-.2-.9-.4-1.3-.5-.8-.2-1.5-.1-2 .1-.5.3-.8.6-.9 1.2-.1.4 0 .8.2 1.1.2.3.5.5.8.7.3.2.8.4 1.4.6.6.2 1.1.5 1.5.7.4.2.6.5.8.8.2.3.3.7.2 1.2-.1.6-.5 1.1-1.1 1.4-.6.3-1.4.3-2.4.2-.7-.1-1.3-.3-1.8-.6z"/><path class="st2" d="M552.4 187.9c.7-.1 1.4 0 2.1.3.7.3 1.2.8 1.7 1.4s.8 1.3.9 2c.1.7 0 1.4-.3 2.1-.3.7-.7 1.2-1.3 1.7-.7.5-1.4.8-2.2.8-.8 0-1.6-.2-2.3-.6l1.5 2-.3.2-7.2-9.5.3-.2 3.7 4.9c-.3-.8-.2-1.6 0-2.3.3-.8.7-1.4 1.4-1.9.6-.6 1.3-.8 2-.9zm4.1 5.7c.3-.6.3-1.2.2-1.9-.1-.7-.4-1.3-.8-1.9-.5-.6-1-1-1.6-1.3-.6-.3-1.2-.4-1.9-.3-.6.1-1.2.3-1.8.8-.6.4-1 .9-1.2 1.5-.3.6-.3 1.2-.2 1.9.1.7.4 1.3.8 1.9.5.6 1 1 1.6 1.3.6.3 1.2.4 1.9.3.6-.1 1.3-.3 1.8-.7.5-.5.9-1 1.2-1.6zM560.6 179.8l5.7 6-.3.2-1.5-1.6c.3.7.4 1.4.2 2-.1.7-.5 1.3-1.1 1.9-.8.7-1.6 1.1-2.4 1.1-.8 0-1.6-.4-2.4-1.2l-3.4-3.5.2-.2 3.4 3.5c.7.7 1.4 1.1 2.2 1.1.8 0 1.5-.3 2.2-1 .7-.7 1.1-1.5 1.1-2.4 0-.9-.4-1.7-1.1-2.5l-3.1-3.3.3-.1zM561 175.7c-.1 0-.2 0-.3-.1-.1-.1-.1-.2-.1-.3 0-.1 0-.2.1-.3.1-.1.2-.1.3-.1.1 0 .2 0 .3.1.1.1.1.2.1.3 0 .1 0 .2-.1.3 0 0-.1 0-.3.1zm1.9 1.5l.2-.2 6.2 5.5-.2.2-6.2-5.5zM562.7 171.9l.2-.2 9.2 7.5-.2.2-9.2-7.5zM569 163.3l9.8 6.8-.2.3-2.1-1.4c.5.7.7 1.4.7 2.2 0 .8-.2 1.6-.7 2.3-.4.6-1 1.1-1.6 1.4-.6.3-1.3.4-2.1.3-.7-.1-1.4-.3-2.1-.8-.7-.5-1.1-1-1.5-1.7-.3-.7-.5-1.3-.4-2 .1-.7.3-1.4.7-2 .5-.7 1.1-1.2 1.9-1.5.8-.3 1.5-.3 2.3-.1l-5-3.5.3-.3zm8 8.1c.1-.7-.1-1.3-.4-1.9-.3-.6-.8-1.1-1.4-1.5-.6-.4-1.3-.7-1.9-.8-.7-.1-1.3 0-1.9.3s-1.1.7-1.5 1.3c-.4.6-.6 1.2-.7 1.8-.1.6.1 1.3.4 1.9.3.6.8 1.1 1.4 1.5.6.4 1.3.7 1.9.8.7.1 1.3 0 1.9-.3.6-.3 1.1-.7 1.5-1.3.4-.6.6-1.2.7-1.8z"/></g><g><path class="st2" d="M540.7 31.3c.7-.1 1.4.1 2.1.5l-.2.3h-.1c-.9-.5-1.7-.6-2.5-.3s-1.4.9-2 1.9l-2.1 3.9-.3-.2 3.9-7.3.3.2-1 1.9c.6-.6 1.2-.9 1.9-.9z"/></g><g><path class="st2" d="M548.5 40.3l-6.2-4c-.4.6-.6 1.3-.7 2 0 .7.1 1.3.4 1.9.3.6.8 1.1 1.4 1.5.5.3 1 .5 1.5.6.5.1 1.1 0 1.5-.1l.1.3c-.5.2-1.1.2-1.7.1-.6-.1-1.1-.3-1.6-.6-.7-.4-1.2-1-1.5-1.6-.3-.6-.5-1.3-.4-2.1 0-.7.3-1.4.7-2.1.4-.7 1-1.2 1.6-1.5.6-.4 1.3-.5 2-.5s1.3.2 1.9.6c.6.4 1.1.9 1.4 1.5.3.6.4 1.3.4 2-.1.6-.3 1.2-.8 2zm-2.8-5.9c-.6 0-1.2.1-1.8.4-.6.3-1 .7-1.4 1.2l5.9 3.8c.3-.6.5-1.2.5-1.8 0-.6-.1-1.2-.4-1.8-.3-.5-.7-1-1.2-1.3-.5-.3-1-.5-1.6-.5z"/></g><g><path class="st2" d="M555.4 35.8l.3.2-7.2 9.5-.3-.2 7.2-9.5z"/></g><g><path class="st2" d="M559 48.9l-5.5-4.9c-.5.6-.8 1.2-1 1.8-.1.7-.1 1.3.1 1.9.2.6.6 1.2 1.1 1.7.4.4.9.6 1.4.8.5.2 1 .2 1.5.1v.3c-.6.1-1.1 0-1.7-.1-.6-.2-1.1-.5-1.5-.9-.6-.5-1-1.1-1.2-1.8-.2-.7-.3-1.4-.1-2.1.2-.7.5-1.4 1-2 .5-.6 1.1-1 1.8-1.3.7-.3 1.3-.3 2-.2.7.1 1.3.4 1.8.9s.9 1 1.1 1.7c.2.7.2 1.3.1 2 0 .8-.3 1.5-.9 2.1zm-1.9-6.2c-.6-.1-1.2-.1-1.8.1-.6.2-1.1.5-1.6 1l5.3 4.7c.4-.5.7-1.1.8-1.7.1-.6.1-1.2-.1-1.8-.2-.6-.5-1.1-1-1.5-.5-.4-1-.7-1.6-.8z"/></g><g><path class="st2" d="M566.7 52c0 .7-.4 1.4-1.1 2l-4 3.7-.2-.2 1.3-1.2c-.6.2-1.2.2-1.8 0-.6-.2-1.2-.5-1.7-1.1-.6-.7-1-1.3-1-2s.2-1.2.7-1.7c.5-.5 1-.6 1.7-.6.6.1 1.3.5 2 1.2l2.1 2.3.7-.6c.6-.6 1-1.2 1-1.8 0-.6-.3-1.2-.9-1.9-.4-.4-.9-.8-1.4-1-.5-.2-1-.4-1.5-.4v-.3c.6 0 1.1.2 1.6.4.5.3 1 .6 1.5 1.1.7.7 1 1.4 1 2.1zm-3.5 3.9l1.3-1.2-2.2-2.3c-.6-.7-1.2-1-1.7-1.1-.5-.1-1 .1-1.4.5-.5.4-.7.9-.6 1.5 0 .6.4 1.2.9 1.8 1 1 2.2 1.3 3.7.8z"/></g><g><path class="st2" d="M564 60.1c-.2-.6-.3-1.1-.2-1.6h.3c0 .4 0 .9.2 1.5s.4 1.1.8 1.6c.6.7 1.1 1.2 1.7 1.3.5.2 1 .1 1.5-.3.3-.3.5-.6.6-.9 0-.3 0-.7-.1-1-.1-.3-.3-.8-.6-1.3-.3-.6-.5-1.1-.7-1.5-.1-.4-.2-.8-.1-1.2.1-.4.3-.8.7-1.1.5-.4 1-.5 1.7-.3.6.1 1.2.6 1.8 1.3.3.4.6.9.8 1.3.2.5.3.9.3 1.3h-.3c0-.4-.1-.8-.2-1.3-.2-.4-.4-.8-.7-1.2-.5-.7-1.1-1.1-1.6-1.2-.5-.1-1 0-1.4.3-.3.3-.5.6-.6.9 0 .3 0 .7.1 1.1.1.4.3.8.6 1.3.3.6.5 1.1.7 1.5.1.4.2.8.1 1.1-.1.4-.3.7-.7 1-.5.4-1.1.5-1.7.3-.6-.2-1.3-.7-1.9-1.4-.6-.3-.9-.9-1.1-1.5z"/></g><g><path class="st2" d="M575.2 69.4l-4-6.2c-.6.4-1.1.9-1.4 1.5-.3.6-.5 1.2-.4 1.9 0 .7.2 1.3.6 1.9.3.5.7.9 1.1 1.2.5.3.9.5 1.5.5l-.1.3c-.6-.1-1.1-.3-1.6-.6s-.9-.7-1.2-1.2c-.4-.7-.7-1.4-.7-2.1 0-.7.1-1.4.5-2 .3-.6.9-1.2 1.5-1.6.7-.4 1.4-.7 2.1-.7.7-.1 1.4.1 2 .3.6.3 1.1.8 1.5 1.4.4.6.6 1.2.6 1.9s-.1 1.3-.5 2c-.3.5-.8 1-1.5 1.5zm-.1-6.5c-.5-.3-1.1-.4-1.8-.4-.6 0-1.2.2-1.8.5l3.8 5.9c.5-.4 1-.9 1.3-1.4.3-.6.4-1.1.4-1.8 0-.6-.2-1.2-.6-1.7-.4-.5-.8-.9-1.3-1.1z"/></g></g></switch></svg>