<svg id="team" xmlns="http://www.w3.org/2000/svg" width="25.881" height="25.881" viewBox="0 0 25.881 25.881">
  <g id="Grupo_16" data-name="Grupo 16" transform="translate(10.352)">
    <g id="Grupo_15" data-name="Grupo 15">
      <path id="Caminho_11" data-name="Caminho 11" d="M194.588,0a2.588,2.588,0,1,0,2.588,2.588A2.588,2.588,0,0,0,194.588,0Zm0,4.313a1.725,1.725,0,1,1,1.725-1.725A1.725,1.725,0,0,1,194.588,4.313Z" transform="translate(-192 0)" fill="#9ad216"/>
    </g>
  </g>
  <g id="Grupo_18" data-name="Grupo 18" transform="translate(9.058 5.608)">
    <g id="Grupo_17" data-name="Grupo 17">
      <path id="Caminho_12" data-name="Caminho 12" d="M173.608,104h-.1l-.091.045a3.438,3.438,0,0,1-3.065,0l-.091-.045h-.1A2.159,2.159,0,0,0,168,106.157v2.588a1.294,1.294,0,0,0,1.294,1.294h5.176a1.294,1.294,0,0,0,1.294-1.294v-2.588A2.159,2.159,0,0,0,173.608,104Zm1.294,4.745a.431.431,0,0,1-.431.431h-5.176a.431.431,0,0,1-.431-.431v-2.588a1.294,1.294,0,0,1,1.2-1.291,4.317,4.317,0,0,0,3.635,0,1.294,1.294,0,0,1,1.2,1.291Z" transform="translate(-168 -104)" fill="#9ad216"/>
    </g>
  </g>
  <g id="Grupo_20" data-name="Grupo 20" transform="translate(19.411 14.235)">
    <g id="Grupo_19" data-name="Grupo 19">
      <path id="Caminho_13" data-name="Caminho 13" d="M362.588,264a2.588,2.588,0,1,0,2.588,2.588A2.588,2.588,0,0,0,362.588,264Zm0,4.314a1.725,1.725,0,1,1,1.725-1.725A1.725,1.725,0,0,1,362.588,268.314Z" transform="translate(-360 -264)" fill="#9ad216"/>
    </g>
  </g>
  <g id="Grupo_22" data-name="Grupo 22" transform="translate(18.117 19.842)">
    <g id="Grupo_21" data-name="Grupo 21">
      <path id="Caminho_14" data-name="Caminho 14" d="M341.608,368h-.1l-.091.043a3.439,3.439,0,0,1-3.065,0l-.091-.043h-.1A2.159,2.159,0,0,0,336,370.157v2.588a1.294,1.294,0,0,0,1.294,1.294h5.176a1.294,1.294,0,0,0,1.294-1.294v-2.588A2.159,2.159,0,0,0,341.608,368Zm1.294,4.745a.431.431,0,0,1-.431.431h-5.176a.431.431,0,0,1-.431-.431v-2.588a1.294,1.294,0,0,1,1.2-1.291,4.316,4.316,0,0,0,3.635,0,1.294,1.294,0,0,1,1.2,1.291Z" transform="translate(-336 -368)" fill="#9ad216"/>
    </g>
  </g>
  <g id="Grupo_24" data-name="Grupo 24" transform="translate(1.294 14.235)">
    <g id="Grupo_23" data-name="Grupo 23">
      <path id="Caminho_15" data-name="Caminho 15" d="M26.588,264a2.588,2.588,0,1,0,2.588,2.588A2.588,2.588,0,0,0,26.588,264Zm0,4.314a1.725,1.725,0,1,1,1.725-1.725A1.725,1.725,0,0,1,26.588,268.314Z" transform="translate(-24 -264)" fill="#9ad216"/>
    </g>
  </g>
  <g id="Grupo_26" data-name="Grupo 26" transform="translate(0 19.842)">
    <g id="Grupo_25" data-name="Grupo 25">
      <path id="Caminho_16" data-name="Caminho 16" d="M5.608,368h-.1l-.091.043a3.439,3.439,0,0,1-3.065,0L2.259,368h-.1A2.159,2.159,0,0,0,0,370.157v2.588a1.294,1.294,0,0,0,1.294,1.294H6.47a1.294,1.294,0,0,0,1.294-1.294v-2.588A2.159,2.159,0,0,0,5.608,368ZM6.9,372.745a.431.431,0,0,1-.431.431H1.294a.431.431,0,0,1-.431-.431v-2.588a1.294,1.294,0,0,1,1.2-1.291,4.317,4.317,0,0,0,3.635,0,1.294,1.294,0,0,1,1.2,1.291Z" transform="translate(0 -368)" fill="#9ad216"/>
    </g>
  </g>
  <g id="Grupo_28" data-name="Grupo 28" transform="translate(8.627 21.136)">
    <g id="Grupo_27" data-name="Grupo 27">
      <path id="Caminho_17" data-name="Caminho 17" d="M168.591,392.765v0a.431.431,0,0,0-.566-.228h0a9.568,9.568,0,0,1-6.152.424l.4-.119a.431.431,0,1,0-.242-.828l-1.725.506c-.006,0-.011.007-.017.009a.428.428,0,0,0-.111.062.376.376,0,0,0-.043.027.418.418,0,0,0-.106.147.433.433,0,0,0-.033.178,1.333,1.333,0,0,0,.043.173c0,.006,0,.013,0,.019l.863,1.651a.432.432,0,1,0,.765-.4l-.351-.671a10.382,10.382,0,0,0,7.039-.383A.431.431,0,0,0,168.591,392.765Z" transform="translate(-159.998 -391.995)" fill="#9ad216"/>
    </g>
  </g>
  <g id="Grupo_30" data-name="Grupo 30" transform="translate(16.391 3.376)">
    <g id="Grupo_29" data-name="Grupo 29">
      <path id="Caminho_18" data-name="Caminho 18" d="M312.067,70.587a.431.431,0,0,0-.61,0l-.61.61a10.337,10.337,0,0,0-6.249-8.541.431.431,0,0,0-.338.794,9.475,9.475,0,0,1,5.705,7.623l-.487-.487a.431.431,0,0,0-.61.61l1.294,1.294a.431.431,0,0,0,.61,0h0l1.294-1.294A.431.431,0,0,0,312.067,70.587Z" transform="translate(-303.998 -62.622)" fill="#9ad216"/>
    </g>
  </g>
  <g id="Grupo_32" data-name="Grupo 32" transform="translate(2.588 2.595)">
    <g id="Grupo_31" data-name="Grupo 31">
      <path id="Caminho_19" data-name="Caminho 19" d="M54.889,49.274a.4.4,0,0,0-.011-.075s0-.006-.006-.011,0-.007,0-.011a.414.414,0,0,0-.041-.06.435.435,0,0,0-.049-.071.4.4,0,0,0-.084-.057.38.38,0,0,0-.048-.035l-1.725-.788a.431.431,0,0,0-.358.784l.893.408A10.337,10.337,0,0,0,48,58.48a.431.431,0,1,0,.863,0,9.475,9.475,0,0,1,4.668-8.171l-.312.652a.431.431,0,0,0,.2.575.425.425,0,0,0,.187.043A.431.431,0,0,0,54,51.333l.863-1.8a.02.02,0,0,1,0-.013.415.415,0,0,0,.023-.091.446.446,0,0,0,.016-.071A.431.431,0,0,0,54.889,49.274Z" transform="translate(-48 -48.134)" fill="#9ad216"/>
    </g>
  </g>
</svg>
