<?xml version="1.0" standalone="no"?>
<!DOCTYPE svg PUBLIC "-//W3C//DTD SVG 20010904//EN"
 "http://www.w3.org/TR/2001/REC-SVG-20010904/DTD/svg10.dtd">
<svg version="1.0" xmlns="http://www.w3.org/2000/svg"
 width="132.000000pt" height="132.000000pt" viewBox="0 0 132.000000 132.000000"
 preserveAspectRatio="xMidYMid meet">
<metadata>
Created by potrace 1.11, written by Peter Selinger 2001-2013
</metadata>
<g transform="translate(0.000000,132.000000) scale(0.100000,-0.100000)"
fill="#000000" stroke="none">
<path d="M0 660 l0 -660 660 0 660 0 0 660 0 660 -660 0 -660 0 0 -660z m758
511 c20 -11 49 -32 64 -48 37 -39 356 -695 364 -748 4 -28 0 -63 -10 -98 -20
-68 -83 -129 -151 -146 -28 -7 -161 -11 -363 -11 -361 0 -393 5 -457 67 -48
47 -68 94 -68 165 0 53 10 78 168 402 173 355 195 390 265 420 50 22 143 20
188 -3z"/>
<path d="M605 1096 c-16 -7 -37 -22 -46 -32 -9 -11 -89 -167 -178 -349 -116
-237 -161 -340 -161 -365 0 -44 30 -94 72 -120 86 -52 204 0 433 190 126 105
171 129 238 130 31 0 47 4 46 13 0 6 -55 122 -122 257 -81 161 -131 251 -148
263 -34 24 -97 31 -134 13z"/>
<path d="M921 459 c-13 -5 -61 -40 -105 -77 -45 -38 -112 -92 -150 -120 l-69
-52 205 0 c197 0 206 1 239 23 41 27 59 60 59 107 0 88 -96 152 -179 119z"/>
</g>
</svg>
